<svg width="720" height="720" viewBox="0 0 720 720" fill="none" xmlns="http://www.w3.org/2000/svg">
<g clip-path="url(#clip0)">
<path d="M712 360C712 553.299 555.3 710 362 710C168.7 710 12 553.299 12 360C12 166.7 168.7 9.99976 362 9.99976C555.3 9.99976 712 166.7 712 360Z" fill="#DCDADA"/>
<g filter="url(#filter0_d)">
<path d="M356.705 359.397L534.5 53.8552C534.5 53.8552 356.705 -52.4671 181.503 53.8552L356.705 359.397Z" fill="#FF2244"/>
</g>
<g filter="url(#filter1_d)">
<path d="M358 358.5L711.505 359.704C711.505 359.704 714.685 152.568 535.006 53.9998L358 358.5Z" fill="#00BB88"/>
</g>
<g filter="url(#filter2_d)">
<path d="M360.459 360.749L184.75 54.0031C184.75 54.0031 3.77399 154.817 8.2511 359.707L360.459 360.749Z" fill="#FFCC44"/>
</g>
<g filter="url(#filter3_d)">
<path d="M359.043 359.25L534.752 665.996C534.752 665.996 715.728 565.182 711.251 360.292L359.043 359.25Z" fill="#FFCC44"/>
</g>
<g filter="url(#filter4_d)">
<path d="M359.797 360.602L182.002 666.144C182.002 666.144 359.797 772.466 534.999 666.144L359.797 360.602Z" fill="#FF2244"/>
</g>
<g filter="url(#filter5_d)">
<path d="M361.509 361.204L8.00378 360C8.00378 360 4.82355 567.136 184.502 665.704L361.509 361.204Z" fill="#00BB88"/>
</g>
<circle cx="362" cy="360" r="125" fill="black" fill-opacity="0.22"/>
<g filter="url(#filter6_d)">
<circle cx="362" cy="360" r="40" fill="#E8E8E8"/>
</g>
<path d="M328.208 116.608H323.696C322.032 116.608 320.752 117.28 319.856 118.624C319.024 119.968 318.128 120.64 317.168 120.64H309.2C307.856 120.64 307.184 120 307.184 118.72V88.2878C307.184 86.9438 307.856 86.2718 309.2 86.2718H342.608C343.952 86.2718 344.624 86.9438 344.624 88.2878V95.5838C344.624 96.9278 343.952 97.5998 342.608 97.5998H319.376V111.712C320.464 108.512 323.152 106.912 327.44 106.912H331.472C341.392 106.912 346.352 111.872 346.352 121.792V132.352C346.352 137.344 344.976 141.216 342.224 143.968C339.472 146.656 335.6 148 330.608 148H322.16C317.104 148 313.2 146.656 310.448 143.968C307.696 141.28 306.32 137.408 306.32 132.352V130.432C306.32 129.024 306.992 128.32 308.336 128.32H316.496C317.84 128.32 318.512 129.024 318.512 130.432V132.256C318.512 134.24 318.928 135.68 319.76 136.576C320.656 137.408 322.096 137.824 324.08 137.824H328.592C330.64 137.824 332.144 137.408 333.104 136.576C334.064 135.68 334.544 134.24 334.544 132.256V123.616C334.544 120.928 334.096 119.104 333.2 118.144C332.304 117.12 330.64 116.608 328.208 116.608ZM404.995 125.44H402.787C401.379 125.44 400.419 125.728 399.906 126.304C399.395 126.816 399.139 127.744 399.139 129.088V137.44C399.139 138.848 399.395 139.84 399.906 140.416C400.419 140.928 401.379 141.184 402.787 141.184H404.995C406.339 141.184 407.267 140.896 407.779 140.32C408.355 139.744 408.643 138.784 408.643 137.44V129.088C408.643 127.744 408.387 126.816 407.875 126.304C407.363 125.728 406.403 125.44 404.995 125.44ZM400.963 118.624H406.627C409.955 118.624 412.483 119.488 414.211 121.216C415.939 122.944 416.803 125.44 416.803 128.704V137.92C416.803 141.184 415.939 143.68 414.211 145.408C412.483 147.136 409.955 148 406.627 148H400.963C397.699 148 395.171 147.136 393.379 145.408C391.651 143.68 390.787 141.184 390.787 137.92V128.704C390.787 125.44 391.651 122.944 393.379 121.216C395.171 119.488 397.699 118.624 400.963 118.624ZM369.475 92.9918H367.267C365.859 92.9918 364.899 93.2798 364.387 93.8558C363.875 94.3678 363.619 95.3278 363.619 96.7358V105.088C363.619 106.432 363.875 107.392 364.387 107.968C364.899 108.48 365.859 108.736 367.267 108.736H369.475C370.883 108.736 371.843 108.48 372.355 107.968C372.867 107.392 373.123 106.432 373.123 105.088V96.7358C373.123 95.3918 372.835 94.4318 372.259 93.8558C371.747 93.2798 370.819 92.9918 369.475 92.9918ZM365.539 86.1758H371.203C374.531 86.1758 377.059 87.0398 378.786 88.7678C380.515 90.4958 381.379 92.9918 381.379 96.2558V105.472C381.379 108.736 380.515 111.232 378.786 112.96C377.059 114.688 374.531 115.552 371.203 115.552H365.539C362.275 115.552 359.747 114.688 357.955 112.96C356.227 111.232 355.363 108.736 355.363 105.472V96.2558C355.363 92.9918 356.227 90.4958 357.955 88.7678C359.747 87.0398 362.275 86.1758 365.539 86.1758ZM376.579 148H371.587C370.115 148 369.635 147.328 370.147 145.984C372.195 140.736 376.003 131.136 381.571 117.184C387.139 103.168 390.947 93.5358 392.995 88.2878C393.571 86.9438 394.403 86.2718 395.491 86.2718H400.579C402.051 86.2718 402.531 86.9438 402.019 88.2878L379.171 145.984C378.659 147.328 377.795 148 376.579 148Z" fill="#911327"/>
<path d="M504.208 225.456V217.584C504.208 216.496 504.688 215.664 505.648 215.088L514.384 209.616C515.856 208.72 517.104 208.272 518.128 208.272H525.808C527.152 208.272 527.824 208.944 527.824 210.288V267.984C527.824 268.752 527.664 269.296 527.344 269.616C527.088 269.872 526.608 270 525.904 270H517.648C516.304 270 515.632 269.328 515.632 267.984V221.232L506.224 226.608C504.88 227.184 504.208 226.8 504.208 225.456ZM557.007 259.44H562.671C564.719 259.44 566.159 259.024 566.991 258.192C567.823 257.296 568.239 255.824 568.239 253.776V224.496C568.239 222.448 567.823 221.008 566.991 220.176C566.159 219.28 564.719 218.832 562.671 218.832H557.007C554.959 218.832 553.519 219.28 552.687 220.176C551.855 221.008 551.439 222.448 551.439 224.496V253.776C551.439 255.824 551.855 257.296 552.687 258.192C553.519 259.024 554.959 259.44 557.007 259.44ZM564.591 270H554.991C549.935 270 546.031 268.656 543.279 265.968C540.527 263.28 539.151 259.408 539.151 254.352V223.92C539.151 218.864 540.527 214.992 543.279 212.304C546.031 209.616 549.935 208.272 554.991 208.272H564.591C569.583 208.272 573.455 209.648 576.207 212.4C578.959 215.088 580.335 218.928 580.335 223.92V254.352C580.335 259.344 578.959 263.216 576.207 265.968C573.455 268.656 569.583 270 564.591 270ZM639.963 247.44H637.755C636.347 247.44 635.387 247.728 634.875 248.304C634.363 248.816 634.107 249.744 634.107 251.088V259.44C634.107 260.848 634.363 261.84 634.875 262.416C635.387 262.928 636.347 263.184 637.755 263.184H639.963C641.307 263.184 642.235 262.896 642.747 262.32C643.323 261.744 643.611 260.784 643.611 259.44V251.088C643.611 249.744 643.355 248.816 642.843 248.304C642.331 247.728 641.371 247.44 639.963 247.44ZM635.931 240.624H641.595C644.923 240.624 647.451 241.488 649.179 243.216C650.907 244.944 651.771 247.44 651.771 250.704V259.92C651.771 263.184 650.907 265.68 649.179 267.408C647.451 269.136 644.923 270 641.595 270H635.931C632.667 270 630.139 269.136 628.347 267.408C626.619 265.68 625.755 263.184 625.755 259.92V250.704C625.755 247.44 626.619 244.944 628.347 243.216C630.139 241.488 632.667 240.624 635.931 240.624ZM604.443 214.992H602.235C600.827 214.992 599.867 215.28 599.355 215.856C598.843 216.368 598.587 217.328 598.587 218.736V227.088C598.587 228.432 598.843 229.392 599.355 229.968C599.867 230.48 600.827 230.736 602.235 230.736H604.443C605.851 230.736 606.811 230.48 607.323 229.968C607.835 229.392 608.091 228.432 608.091 227.088V218.736C608.091 217.392 607.803 216.432 607.227 215.856C606.715 215.28 605.787 214.992 604.443 214.992ZM600.507 208.176H606.171C609.499 208.176 612.027 209.04 613.755 210.768C615.483 212.496 616.347 214.992 616.347 218.256V227.472C616.347 230.736 615.483 233.232 613.755 234.96C612.027 236.688 609.499 237.552 606.171 237.552H600.507C597.243 237.552 594.715 236.688 592.923 234.96C591.195 233.232 590.331 230.736 590.331 227.472V218.256C590.331 214.992 591.195 212.496 592.923 210.768C594.715 209.04 597.243 208.176 600.507 208.176ZM611.547 270H606.555C605.083 270 604.603 269.328 605.115 267.984C607.163 262.736 610.971 253.136 616.539 239.184C622.107 225.168 625.915 215.536 627.963 210.288C628.539 208.944 629.371 208.272 630.459 208.272H635.547C637.019 208.272 637.499 208.944 636.987 210.288L614.139 267.984C613.627 269.328 612.763 270 611.547 270Z" fill="#006A4D"/>
<path d="M504.208 455.456V447.584C504.208 446.496 504.688 445.664 505.648 445.088L514.384 439.616C515.856 438.72 517.104 438.272 518.128 438.272H525.808C527.152 438.272 527.824 438.944 527.824 440.288V497.984C527.824 498.752 527.664 499.296 527.344 499.616C527.088 499.872 526.608 500 525.904 500H517.648C516.304 500 515.632 499.328 515.632 497.984V451.232L506.224 456.608C504.88 457.184 504.208 456.8 504.208 455.456ZM560.271 468.608H555.759C554.095 468.608 552.815 469.28 551.919 470.624C551.087 471.968 550.191 472.64 549.231 472.64H541.263C539.919 472.64 539.247 472 539.247 470.72V440.288C539.247 438.944 539.919 438.272 541.263 438.272H574.671C576.015 438.272 576.687 438.944 576.687 440.288V447.584C576.687 448.928 576.015 449.6 574.671 449.6H551.439V463.712C552.527 460.512 555.215 458.912 559.503 458.912H563.535C573.455 458.912 578.415 463.872 578.415 473.792V484.352C578.415 489.344 577.039 493.216 574.287 495.968C571.535 498.656 567.663 500 562.671 500H554.223C549.167 500 545.263 498.656 542.511 495.968C539.759 493.28 538.383 489.408 538.383 484.352V482.432C538.383 481.024 539.055 480.32 540.398 480.32H548.559C549.903 480.32 550.575 481.024 550.575 482.432V484.256C550.575 486.24 550.991 487.68 551.823 488.576C552.719 489.408 554.159 489.824 556.143 489.824H560.655C562.703 489.824 564.207 489.408 565.167 488.576C566.127 487.68 566.607 486.24 566.607 484.256V475.616C566.607 472.928 566.159 471.104 565.263 470.144C564.367 469.12 562.703 468.608 560.271 468.608ZM637.057 477.44H634.849C633.441 477.44 632.481 477.728 631.969 478.304C631.457 478.816 631.201 479.744 631.201 481.088V489.44C631.201 490.848 631.457 491.84 631.969 492.416C632.481 492.928 633.441 493.184 634.849 493.184H637.057C638.401 493.184 639.329 492.896 639.841 492.32C640.417 491.744 640.705 490.784 640.705 489.44V481.088C640.705 479.744 640.449 478.816 639.937 478.304C639.425 477.728 638.465 477.44 637.057 477.44ZM633.025 470.624H638.689C642.017 470.624 644.545 471.488 646.273 473.216C648.001 474.944 648.865 477.44 648.865 480.704V489.92C648.865 493.184 648.001 495.68 646.273 497.408C644.545 499.136 642.017 500 638.689 500H633.025C629.761 500 627.233 499.136 625.441 497.408C623.713 495.68 622.849 493.184 622.849 489.92V480.704C622.849 477.44 623.713 474.944 625.441 473.216C627.233 471.488 629.761 470.624 633.025 470.624ZM601.537 444.992H599.329C597.921 444.992 596.961 445.28 596.449 445.856C595.937 446.368 595.681 447.328 595.681 448.736V457.088C595.681 458.432 595.937 459.392 596.449 459.968C596.961 460.48 597.921 460.736 599.329 460.736H601.537C602.945 460.736 603.905 460.48 604.417 459.968C604.929 459.392 605.185 458.432 605.185 457.088V448.736C605.185 447.392 604.897 446.432 604.321 445.856C603.809 445.28 602.881 444.992 601.537 444.992ZM597.601 438.176H603.265C606.593 438.176 609.121 439.04 610.849 440.768C612.577 442.496 613.441 444.992 613.441 448.256V457.472C613.441 460.736 612.577 463.232 610.849 464.96C609.121 466.688 606.593 467.552 603.265 467.552H597.601C594.337 467.552 591.809 466.688 590.017 464.96C588.289 463.232 587.425 460.736 587.425 457.472V448.256C587.425 444.992 588.289 442.496 590.017 440.768C591.809 439.04 594.337 438.176 597.601 438.176ZM608.641 500H603.649C602.177 500 601.697 499.328 602.209 497.984C604.257 492.736 608.065 483.136 613.633 469.184C619.201 455.168 623.009 445.536 625.057 440.288C625.633 438.944 626.465 438.272 627.553 438.272H632.641C634.113 438.272 634.593 438.944 634.081 440.288L611.233 497.984C610.721 499.328 609.857 500 608.641 500Z" fill="#917427"/>
<path d="M96.208 468.608H91.696C90.032 468.608 88.752 469.28 87.856 470.624C87.024 471.968 86.128 472.64 85.168 472.64H77.2C75.856 472.64 75.184 472 75.184 470.72V440.288C75.184 438.944 75.856 438.272 77.2 438.272H110.608C111.952 438.272 112.624 438.944 112.624 440.288V447.584C112.624 448.928 111.952 449.6 110.608 449.6H87.376V463.712C88.464 460.512 91.152 458.912 95.44 458.912H99.472C109.392 458.912 114.352 463.872 114.352 473.792V484.352C114.352 489.344 112.976 493.216 110.224 495.968C107.472 498.656 103.6 500 98.608 500H90.16C85.104 500 81.2 498.656 78.448 495.968C75.696 493.28 74.32 489.408 74.32 484.352V482.432C74.32 481.024 74.992 480.32 76.336 480.32H84.496C85.84 480.32 86.512 481.024 86.512 482.432V484.256C86.512 486.24 86.928 487.68 87.76 488.576C88.656 489.408 90.096 489.824 92.08 489.824H96.592C98.64 489.824 100.144 489.408 101.104 488.576C102.064 487.68 102.544 486.24 102.544 484.256V475.616C102.544 472.928 102.096 471.104 101.2 470.144C100.304 469.12 98.64 468.608 96.208 468.608ZM141.507 489.44H147.171C149.219 489.44 150.659 489.024 151.491 488.192C152.323 487.296 152.739 485.824 152.739 483.776V454.496C152.739 452.448 152.323 451.008 151.491 450.176C150.659 449.28 149.219 448.832 147.171 448.832H141.507C139.459 448.832 138.019 449.28 137.187 450.176C136.355 451.008 135.939 452.448 135.939 454.496V483.776C135.939 485.824 136.355 487.296 137.187 488.192C138.019 489.024 139.459 489.44 141.507 489.44ZM149.091 500H139.491C134.435 500 130.531 498.656 127.779 495.968C125.027 493.28 123.651 489.408 123.651 484.352V453.92C123.651 448.864 125.027 444.992 127.779 442.304C130.531 439.616 134.435 438.272 139.491 438.272H149.091C154.083 438.272 157.955 439.648 160.707 442.4C163.459 445.088 164.835 448.928 164.835 453.92V484.352C164.835 489.344 163.459 493.216 160.707 495.968C157.955 498.656 154.083 500 149.091 500ZM224.463 477.44H222.255C220.847 477.44 219.887 477.728 219.375 478.304C218.863 478.816 218.607 479.744 218.607 481.088V489.44C218.607 490.848 218.863 491.84 219.375 492.416C219.887 492.928 220.847 493.184 222.255 493.184H224.463C225.807 493.184 226.735 492.896 227.247 492.32C227.823 491.744 228.111 490.784 228.111 489.44V481.088C228.111 479.744 227.855 478.816 227.343 478.304C226.831 477.728 225.871 477.44 224.463 477.44ZM220.431 470.624H226.095C229.423 470.624 231.951 471.488 233.679 473.216C235.407 474.944 236.271 477.44 236.271 480.704V489.92C236.271 493.184 235.407 495.68 233.679 497.408C231.951 499.136 229.423 500 226.095 500H220.431C217.167 500 214.639 499.136 212.847 497.408C211.119 495.68 210.255 493.184 210.255 489.92V480.704C210.255 477.44 211.119 474.944 212.847 473.216C214.639 471.488 217.167 470.624 220.431 470.624ZM188.943 444.992H186.735C185.327 444.992 184.367 445.28 183.855 445.856C183.343 446.368 183.087 447.328 183.087 448.736V457.088C183.087 458.432 183.343 459.392 183.855 459.968C184.367 460.48 185.327 460.736 186.735 460.736H188.943C190.351 460.736 191.311 460.48 191.823 459.968C192.335 459.392 192.591 458.432 192.591 457.088V448.736C192.591 447.392 192.303 446.432 191.727 445.856C191.215 445.28 190.287 444.992 188.943 444.992ZM185.007 438.176H190.671C193.999 438.176 196.527 439.04 198.255 440.768C199.983 442.496 200.847 444.992 200.847 448.256V457.472C200.847 460.736 199.983 463.232 198.255 464.96C196.527 466.688 193.999 467.552 190.671 467.552H185.007C181.743 467.552 179.215 466.688 177.423 464.96C175.695 463.232 174.831 460.736 174.831 457.472V448.256C174.831 444.992 175.695 442.496 177.423 440.768C179.215 439.04 181.743 438.176 185.007 438.176ZM196.047 500H191.055C189.583 500 189.103 499.328 189.615 497.984C191.663 492.736 195.471 483.136 201.039 469.184C206.607 455.168 210.415 445.536 212.463 440.288C213.039 438.944 213.871 438.272 214.959 438.272H220.047C221.519 438.272 221.999 438.944 221.487 440.288L198.639 497.984C198.127 499.328 197.263 500 196.047 500Z" fill="#911327"/>
<path d="M96.208 468.608H91.696C90.032 468.608 88.752 469.28 87.856 470.624C87.024 471.968 86.128 472.64 85.168 472.64H77.2C75.856 472.64 75.184 472 75.184 470.72V440.288C75.184 438.944 75.856 438.272 77.2 438.272H110.608C111.952 438.272 112.624 438.944 112.624 440.288V447.584C112.624 448.928 111.952 449.6 110.608 449.6H87.376V463.712C88.464 460.512 91.152 458.912 95.44 458.912H99.472C109.392 458.912 114.352 463.872 114.352 473.792V484.352C114.352 489.344 112.976 493.216 110.224 495.968C107.472 498.656 103.6 500 98.608 500H90.16C85.104 500 81.2 498.656 78.448 495.968C75.696 493.28 74.32 489.408 74.32 484.352V482.432C74.32 481.024 74.992 480.32 76.336 480.32H84.496C85.84 480.32 86.512 481.024 86.512 482.432V484.256C86.512 486.24 86.928 487.68 87.76 488.576C88.656 489.408 90.096 489.824 92.08 489.824H96.592C98.64 489.824 100.144 489.408 101.104 488.576C102.064 487.68 102.544 486.24 102.544 484.256V475.616C102.544 472.928 102.096 471.104 101.2 470.144C100.304 469.12 98.64 468.608 96.208 468.608ZM141.507 489.44H147.171C149.219 489.44 150.659 489.024 151.491 488.192C152.323 487.296 152.739 485.824 152.739 483.776V454.496C152.739 452.448 152.323 451.008 151.491 450.176C150.659 449.28 149.219 448.832 147.171 448.832H141.507C139.459 448.832 138.019 449.28 137.187 450.176C136.355 451.008 135.939 452.448 135.939 454.496V483.776C135.939 485.824 136.355 487.296 137.187 488.192C138.019 489.024 139.459 489.44 141.507 489.44ZM149.091 500H139.491C134.435 500 130.531 498.656 127.779 495.968C125.027 493.28 123.651 489.408 123.651 484.352V453.92C123.651 448.864 125.027 444.992 127.779 442.304C130.531 439.616 134.435 438.272 139.491 438.272H149.091C154.083 438.272 157.955 439.648 160.707 442.4C163.459 445.088 164.835 448.928 164.835 453.92V484.352C164.835 489.344 163.459 493.216 160.707 495.968C157.955 498.656 154.083 500 149.091 500ZM224.463 477.44H222.255C220.847 477.44 219.887 477.728 219.375 478.304C218.863 478.816 218.607 479.744 218.607 481.088V489.44C218.607 490.848 218.863 491.84 219.375 492.416C219.887 492.928 220.847 493.184 222.255 493.184H224.463C225.807 493.184 226.735 492.896 227.247 492.32C227.823 491.744 228.111 490.784 228.111 489.44V481.088C228.111 479.744 227.855 478.816 227.343 478.304C226.831 477.728 225.871 477.44 224.463 477.44ZM220.431 470.624H226.095C229.423 470.624 231.951 471.488 233.679 473.216C235.407 474.944 236.271 477.44 236.271 480.704V489.92C236.271 493.184 235.407 495.68 233.679 497.408C231.951 499.136 229.423 500 226.095 500H220.431C217.167 500 214.639 499.136 212.847 497.408C211.119 495.68 210.255 493.184 210.255 489.92V480.704C210.255 477.44 211.119 474.944 212.847 473.216C214.639 471.488 217.167 470.624 220.431 470.624ZM188.943 444.992H186.735C185.327 444.992 184.367 445.28 183.855 445.856C183.343 446.368 183.087 447.328 183.087 448.736V457.088C183.087 458.432 183.343 459.392 183.855 459.968C184.367 460.48 185.327 460.736 186.735 460.736H188.943C190.351 460.736 191.311 460.48 191.823 459.968C192.335 459.392 192.591 458.432 192.591 457.088V448.736C192.591 447.392 192.303 446.432 191.727 445.856C191.215 445.28 190.287 444.992 188.943 444.992ZM185.007 438.176H190.671C193.999 438.176 196.527 439.04 198.255 440.768C199.983 442.496 200.847 444.992 200.847 448.256V457.472C200.847 460.736 199.983 463.232 198.255 464.96C196.527 466.688 193.999 467.552 190.671 467.552H185.007C181.743 467.552 179.215 466.688 177.423 464.96C175.695 463.232 174.831 460.736 174.831 457.472V448.256C174.831 444.992 175.695 442.496 177.423 440.768C179.215 439.04 181.743 438.176 185.007 438.176ZM196.047 500H191.055C189.583 500 189.103 499.328 189.615 497.984C191.663 492.736 195.471 483.136 201.039 469.184C206.607 455.168 210.415 445.536 212.463 440.288C213.039 438.944 213.871 438.272 214.959 438.272H220.047C221.519 438.272 221.999 438.944 221.487 440.288L198.639 497.984C198.127 499.328 197.263 500 196.047 500Z" fill="#006A4D"/>
<path d="M96.208 468.608H91.696C90.032 468.608 88.752 469.28 87.856 470.624C87.024 471.968 86.128 472.64 85.168 472.64H77.2C75.856 472.64 75.184 472 75.184 470.72V440.288C75.184 438.944 75.856 438.272 77.2 438.272H110.608C111.952 438.272 112.624 438.944 112.624 440.288V447.584C112.624 448.928 111.952 449.6 110.608 449.6H87.376V463.712C88.464 460.512 91.152 458.912 95.44 458.912H99.472C109.392 458.912 114.352 463.872 114.352 473.792V484.352C114.352 489.344 112.976 493.216 110.224 495.968C107.472 498.656 103.6 500 98.608 500H90.16C85.104 500 81.2 498.656 78.448 495.968C75.696 493.28 74.32 489.408 74.32 484.352V482.432C74.32 481.024 74.992 480.32 76.336 480.32H84.496C85.84 480.32 86.512 481.024 86.512 482.432V484.256C86.512 486.24 86.928 487.68 87.76 488.576C88.656 489.408 90.096 489.824 92.08 489.824H96.592C98.64 489.824 100.144 489.408 101.104 488.576C102.064 487.68 102.544 486.24 102.544 484.256V475.616C102.544 472.928 102.096 471.104 101.2 470.144C100.304 469.12 98.64 468.608 96.208 468.608ZM141.507 489.44H147.171C149.219 489.44 150.659 489.024 151.491 488.192C152.323 487.296 152.739 485.824 152.739 483.776V454.496C152.739 452.448 152.323 451.008 151.491 450.176C150.659 449.28 149.219 448.832 147.171 448.832H141.507C139.459 448.832 138.019 449.28 137.187 450.176C136.355 451.008 135.939 452.448 135.939 454.496V483.776C135.939 485.824 136.355 487.296 137.187 488.192C138.019 489.024 139.459 489.44 141.507 489.44ZM149.091 500H139.491C134.435 500 130.531 498.656 127.779 495.968C125.027 493.28 123.651 489.408 123.651 484.352V453.92C123.651 448.864 125.027 444.992 127.779 442.304C130.531 439.616 134.435 438.272 139.491 438.272H149.091C154.083 438.272 157.955 439.648 160.707 442.4C163.459 445.088 164.835 448.928 164.835 453.92V484.352C164.835 489.344 163.459 493.216 160.707 495.968C157.955 498.656 154.083 500 149.091 500ZM224.463 477.44H222.255C220.847 477.44 219.887 477.728 219.375 478.304C218.863 478.816 218.607 479.744 218.607 481.088V489.44C218.607 490.848 218.863 491.84 219.375 492.416C219.887 492.928 220.847 493.184 222.255 493.184H224.463C225.807 493.184 226.735 492.896 227.247 492.32C227.823 491.744 228.111 490.784 228.111 489.44V481.088C228.111 479.744 227.855 478.816 227.343 478.304C226.831 477.728 225.871 477.44 224.463 477.44ZM220.431 470.624H226.095C229.423 470.624 231.951 471.488 233.679 473.216C235.407 474.944 236.271 477.44 236.271 480.704V489.92C236.271 493.184 235.407 495.68 233.679 497.408C231.951 499.136 229.423 500 226.095 500H220.431C217.167 500 214.639 499.136 212.847 497.408C211.119 495.68 210.255 493.184 210.255 489.92V480.704C210.255 477.44 211.119 474.944 212.847 473.216C214.639 471.488 217.167 470.624 220.431 470.624ZM188.943 444.992H186.735C185.327 444.992 184.367 445.28 183.855 445.856C183.343 446.368 183.087 447.328 183.087 448.736V457.088C183.087 458.432 183.343 459.392 183.855 459.968C184.367 460.48 185.327 460.736 186.735 460.736H188.943C190.351 460.736 191.311 460.48 191.823 459.968C192.335 459.392 192.591 458.432 192.591 457.088V448.736C192.591 447.392 192.303 446.432 191.727 445.856C191.215 445.28 190.287 444.992 188.943 444.992ZM185.007 438.176H190.671C193.999 438.176 196.527 439.04 198.255 440.768C199.983 442.496 200.847 444.992 200.847 448.256V457.472C200.847 460.736 199.983 463.232 198.255 464.96C196.527 466.688 193.999 467.552 190.671 467.552H185.007C181.743 467.552 179.215 466.688 177.423 464.96C175.695 463.232 174.831 460.736 174.831 457.472V448.256C174.831 444.992 175.695 442.496 177.423 440.768C179.215 439.04 181.743 438.176 185.007 438.176ZM196.047 500H191.055C189.583 500 189.103 499.328 189.615 497.984C191.663 492.736 195.471 483.136 201.039 469.184C206.607 455.168 210.415 445.536 212.463 440.288C213.039 438.944 213.871 438.272 214.959 438.272H220.047C221.519 438.272 221.999 438.944 221.487 440.288L198.639 497.984C198.127 499.328 197.263 500 196.047 500Z" fill="#006A4D"/>
<path d="M96.208 468.608H91.696C90.032 468.608 88.752 469.28 87.856 470.624C87.024 471.968 86.128 472.64 85.168 472.64H77.2C75.856 472.64 75.184 472 75.184 470.72V440.288C75.184 438.944 75.856 438.272 77.2 438.272H110.608C111.952 438.272 112.624 438.944 112.624 440.288V447.584C112.624 448.928 111.952 449.6 110.608 449.6H87.376V463.712C88.464 460.512 91.152 458.912 95.44 458.912H99.472C109.392 458.912 114.352 463.872 114.352 473.792V484.352C114.352 489.344 112.976 493.216 110.224 495.968C107.472 498.656 103.6 500 98.608 500H90.16C85.104 500 81.2 498.656 78.448 495.968C75.696 493.28 74.32 489.408 74.32 484.352V482.432C74.32 481.024 74.992 480.32 76.336 480.32H84.496C85.84 480.32 86.512 481.024 86.512 482.432V484.256C86.512 486.24 86.928 487.68 87.76 488.576C88.656 489.408 90.096 489.824 92.08 489.824H96.592C98.64 489.824 100.144 489.408 101.104 488.576C102.064 487.68 102.544 486.24 102.544 484.256V475.616C102.544 472.928 102.096 471.104 101.2 470.144C100.304 469.12 98.64 468.608 96.208 468.608ZM141.507 489.44H147.171C149.219 489.44 150.659 489.024 151.491 488.192C152.323 487.296 152.739 485.824 152.739 483.776V454.496C152.739 452.448 152.323 451.008 151.491 450.176C150.659 449.28 149.219 448.832 147.171 448.832H141.507C139.459 448.832 138.019 449.28 137.187 450.176C136.355 451.008 135.939 452.448 135.939 454.496V483.776C135.939 485.824 136.355 487.296 137.187 488.192C138.019 489.024 139.459 489.44 141.507 489.44ZM149.091 500H139.491C134.435 500 130.531 498.656 127.779 495.968C125.027 493.28 123.651 489.408 123.651 484.352V453.92C123.651 448.864 125.027 444.992 127.779 442.304C130.531 439.616 134.435 438.272 139.491 438.272H149.091C154.083 438.272 157.955 439.648 160.707 442.4C163.459 445.088 164.835 448.928 164.835 453.92V484.352C164.835 489.344 163.459 493.216 160.707 495.968C157.955 498.656 154.083 500 149.091 500ZM224.463 477.44H222.255C220.847 477.44 219.887 477.728 219.375 478.304C218.863 478.816 218.607 479.744 218.607 481.088V489.44C218.607 490.848 218.863 491.84 219.375 492.416C219.887 492.928 220.847 493.184 222.255 493.184H224.463C225.807 493.184 226.735 492.896 227.247 492.32C227.823 491.744 228.111 490.784 228.111 489.44V481.088C228.111 479.744 227.855 478.816 227.343 478.304C226.831 477.728 225.871 477.44 224.463 477.44ZM220.431 470.624H226.095C229.423 470.624 231.951 471.488 233.679 473.216C235.407 474.944 236.271 477.44 236.271 480.704V489.92C236.271 493.184 235.407 495.68 233.679 497.408C231.951 499.136 229.423 500 226.095 500H220.431C217.167 500 214.639 499.136 212.847 497.408C211.119 495.68 210.255 493.184 210.255 489.92V480.704C210.255 477.44 211.119 474.944 212.847 473.216C214.639 471.488 217.167 470.624 220.431 470.624ZM188.943 444.992H186.735C185.327 444.992 184.367 445.28 183.855 445.856C183.343 446.368 183.087 447.328 183.087 448.736V457.088C183.087 458.432 183.343 459.392 183.855 459.968C184.367 460.48 185.327 460.736 186.735 460.736H188.943C190.351 460.736 191.311 460.48 191.823 459.968C192.335 459.392 192.591 458.432 192.591 457.088V448.736C192.591 447.392 192.303 446.432 191.727 445.856C191.215 445.28 190.287 444.992 188.943 444.992ZM185.007 438.176H190.671C193.999 438.176 196.527 439.04 198.255 440.768C199.983 442.496 200.847 444.992 200.847 448.256V457.472C200.847 460.736 199.983 463.232 198.255 464.96C196.527 466.688 193.999 467.552 190.671 467.552H185.007C181.743 467.552 179.215 466.688 177.423 464.96C175.695 463.232 174.831 460.736 174.831 457.472V448.256C174.831 444.992 175.695 442.496 177.423 440.768C179.215 439.04 181.743 438.176 185.007 438.176ZM196.047 500H191.055C189.583 500 189.103 499.328 189.615 497.984C191.663 492.736 195.471 483.136 201.039 469.184C206.607 455.168 210.415 445.536 212.463 440.288C213.039 438.944 213.871 438.272 214.959 438.272H220.047C221.519 438.272 221.999 438.944 221.487 440.288L198.639 497.984C198.127 499.328 197.263 500 196.047 500Z" fill="#006A4D"/>
<path d="M96.208 468.608H91.696C90.032 468.608 88.752 469.28 87.856 470.624C87.024 471.968 86.128 472.64 85.168 472.64H77.2C75.856 472.64 75.184 472 75.184 470.72V440.288C75.184 438.944 75.856 438.272 77.2 438.272H110.608C111.952 438.272 112.624 438.944 112.624 440.288V447.584C112.624 448.928 111.952 449.6 110.608 449.6H87.376V463.712C88.464 460.512 91.152 458.912 95.44 458.912H99.472C109.392 458.912 114.352 463.872 114.352 473.792V484.352C114.352 489.344 112.976 493.216 110.224 495.968C107.472 498.656 103.6 500 98.608 500H90.16C85.104 500 81.2 498.656 78.448 495.968C75.696 493.28 74.32 489.408 74.32 484.352V482.432C74.32 481.024 74.992 480.32 76.336 480.32H84.496C85.84 480.32 86.512 481.024 86.512 482.432V484.256C86.512 486.24 86.928 487.68 87.76 488.576C88.656 489.408 90.096 489.824 92.08 489.824H96.592C98.64 489.824 100.144 489.408 101.104 488.576C102.064 487.68 102.544 486.24 102.544 484.256V475.616C102.544 472.928 102.096 471.104 101.2 470.144C100.304 469.12 98.64 468.608 96.208 468.608ZM141.507 489.44H147.171C149.219 489.44 150.659 489.024 151.491 488.192C152.323 487.296 152.739 485.824 152.739 483.776V454.496C152.739 452.448 152.323 451.008 151.491 450.176C150.659 449.28 149.219 448.832 147.171 448.832H141.507C139.459 448.832 138.019 449.28 137.187 450.176C136.355 451.008 135.939 452.448 135.939 454.496V483.776C135.939 485.824 136.355 487.296 137.187 488.192C138.019 489.024 139.459 489.44 141.507 489.44ZM149.091 500H139.491C134.435 500 130.531 498.656 127.779 495.968C125.027 493.28 123.651 489.408 123.651 484.352V453.92C123.651 448.864 125.027 444.992 127.779 442.304C130.531 439.616 134.435 438.272 139.491 438.272H149.091C154.083 438.272 157.955 439.648 160.707 442.4C163.459 445.088 164.835 448.928 164.835 453.92V484.352C164.835 489.344 163.459 493.216 160.707 495.968C157.955 498.656 154.083 500 149.091 500ZM224.463 477.44H222.255C220.847 477.44 219.887 477.728 219.375 478.304C218.863 478.816 218.607 479.744 218.607 481.088V489.44C218.607 490.848 218.863 491.84 219.375 492.416C219.887 492.928 220.847 493.184 222.255 493.184H224.463C225.807 493.184 226.735 492.896 227.247 492.32C227.823 491.744 228.111 490.784 228.111 489.44V481.088C228.111 479.744 227.855 478.816 227.343 478.304C226.831 477.728 225.871 477.44 224.463 477.44ZM220.431 470.624H226.095C229.423 470.624 231.951 471.488 233.679 473.216C235.407 474.944 236.271 477.44 236.271 480.704V489.92C236.271 493.184 235.407 495.68 233.679 497.408C231.951 499.136 229.423 500 226.095 500H220.431C217.167 500 214.639 499.136 212.847 497.408C211.119 495.68 210.255 493.184 210.255 489.92V480.704C210.255 477.44 211.119 474.944 212.847 473.216C214.639 471.488 217.167 470.624 220.431 470.624ZM188.943 444.992H186.735C185.327 444.992 184.367 445.28 183.855 445.856C183.343 446.368 183.087 447.328 183.087 448.736V457.088C183.087 458.432 183.343 459.392 183.855 459.968C184.367 460.48 185.327 460.736 186.735 460.736H188.943C190.351 460.736 191.311 460.48 191.823 459.968C192.335 459.392 192.591 458.432 192.591 457.088V448.736C192.591 447.392 192.303 446.432 191.727 445.856C191.215 445.28 190.287 444.992 188.943 444.992ZM185.007 438.176H190.671C193.999 438.176 196.527 439.04 198.255 440.768C199.983 442.496 200.847 444.992 200.847 448.256V457.472C200.847 460.736 199.983 463.232 198.255 464.96C196.527 466.688 193.999 467.552 190.671 467.552H185.007C181.743 467.552 179.215 466.688 177.423 464.96C175.695 463.232 174.831 460.736 174.831 457.472V448.256C174.831 444.992 175.695 442.496 177.423 440.768C179.215 439.04 181.743 438.176 185.007 438.176ZM196.047 500H191.055C189.583 500 189.103 499.328 189.615 497.984C191.663 492.736 195.471 483.136 201.039 469.184C206.607 455.168 210.415 445.536 212.463 440.288C213.039 438.944 213.871 438.272 214.959 438.272H220.047C221.519 438.272 221.999 438.944 221.487 440.288L198.639 497.984C198.127 499.328 197.263 500 196.047 500Z" fill="#006A4D"/>
<path d="M280.512 630.984V621.864C280.512 618.216 282.08 615.112 285.216 612.552L302.88 597.576C305.76 595.208 307.2 592.648 307.2 589.896V587.016C307.2 585.032 306.72 583.624 305.76 582.792C304.864 581.896 303.36 581.448 301.248 581.448H297.888C295.84 581.448 294.4 581.896 293.568 582.792C292.736 583.624 292.32 585.032 292.32 587.016V590.088C292.32 591.496 291.648 592.2 290.304 592.2H282.144C280.8 592.2 280.128 591.496 280.128 590.088V586.824C280.128 581.832 281.504 577.992 284.256 575.304C287.008 572.616 290.912 571.272 295.968 571.272H303.264C308.32 571.272 312.224 572.616 314.976 575.304C317.728 577.992 319.104 581.832 319.104 586.824V590.664C319.104 595.656 317.184 599.784 313.344 603.048L295.296 618.408C294.528 619.112 294.144 619.88 294.144 620.712V622.248H317.088C318.432 622.248 319.104 622.92 319.104 624.264V630.984C319.104 632.328 318.432 633 317.088 633H282.528C281.184 633 280.512 632.328 280.512 630.984ZM349.552 601.608H345.04C343.376 601.608 342.096 602.28 341.2 603.624C340.368 604.968 339.472 605.64 338.512 605.64H330.544C329.2 605.64 328.528 605 328.528 603.72V573.288C328.528 571.944 329.2 571.272 330.544 571.272H363.952C365.296 571.272 365.968 571.944 365.968 573.288V580.584C365.968 581.928 365.296 582.6 363.952 582.6H340.72V596.712C341.808 593.512 344.496 591.912 348.784 591.912H352.816C362.736 591.912 367.696 596.872 367.696 606.792V617.352C367.696 622.344 366.32 626.216 363.568 628.968C360.816 631.656 356.944 633 351.952 633H343.504C338.448 633 334.544 631.656 331.792 628.968C329.04 626.28 327.664 622.408 327.664 617.352V615.432C327.664 614.024 328.336 613.32 329.68 613.32H337.84C339.184 613.32 339.856 614.024 339.856 615.432V617.256C339.856 619.24 340.272 620.68 341.104 621.576C342 622.408 343.44 622.824 345.424 622.824H349.936C351.984 622.824 353.488 622.408 354.448 621.576C355.408 620.68 355.888 619.24 355.888 617.256V608.616C355.888 605.928 355.44 604.104 354.544 603.144C353.648 602.12 351.984 601.608 349.552 601.608ZM426.338 610.44H424.13C422.722 610.44 421.762 610.728 421.25 611.304C420.738 611.816 420.482 612.744 420.482 614.088V622.44C420.482 623.848 420.738 624.84 421.25 625.416C421.762 625.928 422.722 626.184 424.13 626.184H426.338C427.682 626.184 428.61 625.896 429.122 625.32C429.698 624.744 429.986 623.784 429.986 622.44V614.088C429.986 612.744 429.73 611.816 429.218 611.304C428.706 610.728 427.746 610.44 426.338 610.44ZM422.306 603.624H427.97C431.298 603.624 433.826 604.488 435.554 606.216C437.282 607.944 438.146 610.44 438.146 613.704V622.92C438.146 626.184 437.282 628.68 435.554 630.408C433.826 632.136 431.298 633 427.97 633H422.306C419.042 633 416.514 632.136 414.722 630.408C412.994 628.68 412.13 626.184 412.13 622.92V613.704C412.13 610.44 412.994 607.944 414.722 606.216C416.514 604.488 419.042 603.624 422.306 603.624ZM390.818 577.992H388.61C387.202 577.992 386.242 578.28 385.73 578.856C385.218 579.368 384.962 580.328 384.962 581.736V590.088C384.962 591.432 385.218 592.392 385.73 592.968C386.242 593.48 387.202 593.736 388.61 593.736H390.818C392.226 593.736 393.186 593.48 393.698 592.968C394.21 592.392 394.466 591.432 394.466 590.088V581.736C394.466 580.392 394.178 579.432 393.602 578.856C393.09 578.28 392.162 577.992 390.818 577.992ZM386.882 571.176H392.546C395.874 571.176 398.402 572.04 400.13 573.768C401.858 575.496 402.722 577.992 402.722 581.256V590.472C402.722 593.736 401.858 596.232 400.13 597.96C398.402 599.688 395.874 600.552 392.546 600.552H386.882C383.618 600.552 381.09 599.688 379.298 597.96C377.57 596.232 376.706 593.736 376.706 590.472V581.256C376.706 577.992 377.57 575.496 379.298 573.768C381.09 572.04 383.618 571.176 386.882 571.176ZM397.922 633H392.93C391.458 633 390.978 632.328 391.49 630.984C393.538 625.736 397.346 616.136 402.914 602.184C408.482 588.168 412.29 578.536 414.338 573.288C414.914 571.944 415.746 571.272 416.834 571.272H421.922C423.394 571.272 423.874 571.944 423.362 573.288L400.514 630.984C400.002 632.328 399.138 633 397.922 633Z" fill="#911327"/>
<path d="M280.512 630.984V621.864C280.512 618.216 282.08 615.112 285.216 612.552L302.88 597.576C305.76 595.208 307.2 592.648 307.2 589.896V587.016C307.2 585.032 306.72 583.624 305.76 582.792C304.864 581.896 303.36 581.448 301.248 581.448H297.888C295.84 581.448 294.4 581.896 293.568 582.792C292.736 583.624 292.32 585.032 292.32 587.016V590.088C292.32 591.496 291.648 592.2 290.304 592.2H282.144C280.8 592.2 280.128 591.496 280.128 590.088V586.824C280.128 581.832 281.504 577.992 284.256 575.304C287.008 572.616 290.912 571.272 295.968 571.272H303.264C308.32 571.272 312.224 572.616 314.976 575.304C317.728 577.992 319.104 581.832 319.104 586.824V590.664C319.104 595.656 317.184 599.784 313.344 603.048L295.296 618.408C294.528 619.112 294.144 619.88 294.144 620.712V622.248H317.088C318.432 622.248 319.104 622.92 319.104 624.264V630.984C319.104 632.328 318.432 633 317.088 633H282.528C281.184 633 280.512 632.328 280.512 630.984ZM349.552 601.608H345.04C343.376 601.608 342.096 602.28 341.2 603.624C340.368 604.968 339.472 605.64 338.512 605.64H330.544C329.2 605.64 328.528 605 328.528 603.72V573.288C328.528 571.944 329.2 571.272 330.544 571.272H363.952C365.296 571.272 365.968 571.944 365.968 573.288V580.584C365.968 581.928 365.296 582.6 363.952 582.6H340.72V596.712C341.808 593.512 344.496 591.912 348.784 591.912H352.816C362.736 591.912 367.696 596.872 367.696 606.792V617.352C367.696 622.344 366.32 626.216 363.568 628.968C360.816 631.656 356.944 633 351.952 633H343.504C338.448 633 334.544 631.656 331.792 628.968C329.04 626.28 327.664 622.408 327.664 617.352V615.432C327.664 614.024 328.336 613.32 329.68 613.32H337.84C339.184 613.32 339.856 614.024 339.856 615.432V617.256C339.856 619.24 340.272 620.68 341.104 621.576C342 622.408 343.44 622.824 345.424 622.824H349.936C351.984 622.824 353.488 622.408 354.448 621.576C355.408 620.68 355.888 619.24 355.888 617.256V608.616C355.888 605.928 355.44 604.104 354.544 603.144C353.648 602.12 351.984 601.608 349.552 601.608ZM426.338 610.44H424.13C422.722 610.44 421.762 610.728 421.25 611.304C420.738 611.816 420.482 612.744 420.482 614.088V622.44C420.482 623.848 420.738 624.84 421.25 625.416C421.762 625.928 422.722 626.184 424.13 626.184H426.338C427.682 626.184 428.61 625.896 429.122 625.32C429.698 624.744 429.986 623.784 429.986 622.44V614.088C429.986 612.744 429.73 611.816 429.218 611.304C428.706 610.728 427.746 610.44 426.338 610.44ZM422.306 603.624H427.97C431.298 603.624 433.826 604.488 435.554 606.216C437.282 607.944 438.146 610.44 438.146 613.704V622.92C438.146 626.184 437.282 628.68 435.554 630.408C433.826 632.136 431.298 633 427.97 633H422.306C419.042 633 416.514 632.136 414.722 630.408C412.994 628.68 412.13 626.184 412.13 622.92V613.704C412.13 610.44 412.994 607.944 414.722 606.216C416.514 604.488 419.042 603.624 422.306 603.624ZM390.818 577.992H388.61C387.202 577.992 386.242 578.28 385.73 578.856C385.218 579.368 384.962 580.328 384.962 581.736V590.088C384.962 591.432 385.218 592.392 385.73 592.968C386.242 593.48 387.202 593.736 388.61 593.736H390.818C392.226 593.736 393.186 593.48 393.698 592.968C394.21 592.392 394.466 591.432 394.466 590.088V581.736C394.466 580.392 394.178 579.432 393.602 578.856C393.09 578.28 392.162 577.992 390.818 577.992ZM386.882 571.176H392.546C395.874 571.176 398.402 572.04 400.13 573.768C401.858 575.496 402.722 577.992 402.722 581.256V590.472C402.722 593.736 401.858 596.232 400.13 597.96C398.402 599.688 395.874 600.552 392.546 600.552H386.882C383.618 600.552 381.09 599.688 379.298 597.96C377.57 596.232 376.706 593.736 376.706 590.472V581.256C376.706 577.992 377.57 575.496 379.298 573.768C381.09 572.04 383.618 571.176 386.882 571.176ZM397.922 633H392.93C391.458 633 390.978 632.328 391.49 630.984C393.538 625.736 397.346 616.136 402.914 602.184C408.482 588.168 412.29 578.536 414.338 573.288C414.914 571.944 415.746 571.272 416.834 571.272H421.922C423.394 571.272 423.874 571.944 423.362 573.288L400.514 630.984C400.002 632.328 399.138 633 397.922 633Z" fill="#911327"/>
<path d="M250.228 251.64V251.064C250.228 250.253 250.655 249.848 251.508 249.848H254.708C255.561 249.848 255.988 250.253 255.988 251.064V251.64C255.988 253.346 255.604 255.117 254.836 256.952C254.708 257.293 254.58 257.634 254.452 257.976C254.324 258.274 254.175 258.552 254.004 258.808C253.876 259.021 253.748 259.234 253.62 259.448C253.535 259.618 253.471 259.768 253.428 259.896C254.58 258.488 255.433 257.528 255.988 257.016C257.183 255.906 258.825 255.01 260.916 254.328C261.641 254.114 262.175 254.392 262.516 255.16L263.476 258.232C263.732 259.042 263.455 259.576 262.644 259.832C261.151 260.386 259.636 260.664 258.1 260.664C256.308 260.621 254.879 260.472 253.812 260.216C257.14 261.368 259.551 263.138 261.044 265.528C261.513 266.21 261.428 266.786 260.788 267.256L258.164 269.112C257.481 269.538 256.884 269.453 256.372 268.856C254.324 266.381 253.3 263.437 253.3 260.024C253.172 262.754 252.831 264.696 252.276 265.848C251.892 266.786 251.295 267.896 250.484 269.176C250.057 269.773 249.46 269.837 248.692 269.368L246.132 267.448C245.321 267.021 245.215 266.445 245.812 265.72C246.793 264.354 247.625 263.437 248.308 262.968C248.991 262.456 249.545 262.05 249.972 261.752C250.441 261.453 250.868 261.218 251.252 261.048C251.636 260.834 251.956 260.664 252.212 260.536C252.511 260.365 252.873 260.194 253.3 260.024C249.631 261.048 246.644 261.176 244.34 260.408L243.764 260.216C243.039 259.96 242.804 259.426 243.06 258.616L244.02 255.544C244.276 254.733 244.809 254.477 245.62 254.776C248.18 255.501 250.612 257.122 252.916 259.64L253.172 259.896C253.087 259.768 252.98 259.618 252.852 259.448C252.767 259.234 252.639 259.021 252.468 258.808C252.297 258.552 252.127 258.274 251.956 257.976C251.828 257.634 251.679 257.293 251.508 256.952C251.337 256.568 251.167 256.162 250.996 255.736C250.868 255.309 250.74 254.882 250.612 254.456C250.356 253.602 250.228 252.664 250.228 251.64Z" fill="#917427"/>
<path d="M93 234.746C112.882 234.746 129 225.792 129 214.746C129 203.7 112.882 194.746 93 194.746C73.1177 194.746 57 203.7 57 214.746C57 225.792 73.1177 234.746 93 234.746Z" fill="#939598"/>
<path d="M93 230.746C112.882 230.746 129 221.792 129 210.746C129 199.7 112.882 190.746 93 190.746C73.1177 190.746 57 199.7 57 210.746C57 221.792 73.1177 230.746 93 230.746Z" fill="#F1F2F2"/>
<path d="M92.9999 225.19C109.348 225.19 122.6 218.375 122.6 209.968C122.6 201.561 109.348 194.746 92.9999 194.746C76.6523 194.746 63.3999 201.561 63.3999 209.968C63.3999 218.375 76.6523 225.19 92.9999 225.19Z" fill="white"/>
<path d="M73 220.746C73 214.658 73.834 206.33 73.084 192.996C74.286 190.242 85.376 188.052 86.334 185.412C88.908 178.32 83.916 173.58 89 168.746C93.1 164.848 99 164.746 101 170.746C105 166.746 113 168.746 113 174.746C121 172.746 125 180.746 119 186.746C119 188.746 117 204.746 117 208.746C117 212.746 116.584 212.33 106.584 214.33C96.584 216.33 73 220.746 73 220.746Z" fill="#E1E8ED"/>
<path d="M73 218.746V194.746C73 194.746 115 180.746 115 189.83V210.746L73 218.746Z" fill="#FFAC33"/>
<path d="M73 216.746V196.746C73 196.746 97.75 188.33 113 188.746V208.746L73 216.746Z" fill="#FFD983"/>
<path d="M73 206.746V204.746L115 196.746V198.746L73 206.746Z" fill="#FFAC33"/>
<path d="M73 192.746L91 174.746C95 174.746 107 176.746 113 184.746L73 192.746Z" fill="#E1E8ED"/>
<path d="M117 184.746C119 182.746 119 174.746 111 176.746C111 174.746 107 168.746 101 172.746C101 170.746 90.9999 168.746 88.9999 172.746C109 178.746 117 184.746 117 184.746Z" fill="white"/>
<path d="M92.9161 185.662C89.2501 185.246 84.0821 183.496 85.0821 178.662C86.0821 173.828 90.0301 168.9 92.5821 167.578C94.8341 166.412 97.2341 167.266 99.0001 174.08C100.166 178.58 104.5 184.33 95.6661 185.58C94.7501 185.58 92.9161 185.662 92.9161 185.662Z" fill="#DD2E44"/>
<path d="M93.7501 174.83C93.4461 174.83 93.1461 174.692 92.9501 174.43L91.9501 173.096C91.6181 172.654 91.7081 172.028 92.1501 171.696C92.5921 171.362 93.2181 171.452 93.5501 171.896L94.5501 173.23C94.8821 173.672 94.7921 174.298 94.3501 174.63C94.1701 174.764 93.9601 174.83 93.7501 174.83ZM88.9181 181.83C88.8341 181.83 88.7501 181.82 88.6641 181.798C88.1301 181.658 87.8101 181.112 87.9501 180.578L88.4501 178.662C88.5881 178.128 89.1381 177.81 89.6701 177.948C90.2041 178.088 90.5241 178.634 90.3841 179.168L89.8841 181.084C89.7681 181.532 89.3621 181.83 88.9181 181.83V181.83ZM97.6661 181.996C97.4881 181.996 97.3061 181.95 97.1441 181.85L95.6441 180.934C95.1741 180.646 95.0241 180.03 95.3121 179.558C95.6041 179.086 96.2181 178.938 96.6881 179.226L98.1881 180.142C98.6581 180.43 98.8061 181.046 98.5201 181.518C98.3301 181.826 98.0021 181.996 97.6661 181.996Z" fill="#F4ABBA"/>
<path d="M127.882 242H122.442C121.546 242 121.098 241.552 121.098 240.656V202.192C121.098 201.296 121.546 200.848 122.442 200.848H142.858C143.711 200.848 144.138 201.296 144.138 202.192V206.544C144.138 207.44 143.711 207.888 142.858 207.888H129.994C129.482 207.888 129.226 208.122 129.226 208.592V218.512C129.226 219.024 129.482 219.28 129.994 219.28H140.938C141.834 219.28 142.282 219.728 142.282 220.624V224.912C142.282 225.85 141.834 226.32 140.938 226.32H129.994C129.482 226.32 129.226 226.554 129.226 227.024V240.656C129.226 241.552 128.778 242 127.882 242ZM156.694 242H151.254C150.358 242 149.91 241.552 149.91 240.656V202.192C149.91 201.296 150.358 200.848 151.254 200.848H166.486C169.814 200.848 172.417 201.765 174.294 203.6C176.171 205.434 177.11 208.016 177.11 211.344V216.336C177.11 221.157 175.211 224.357 171.414 225.936V226.192L178.262 240.464C178.646 241.488 178.283 242 177.174 242H171.99C171.222 242 170.667 241.914 170.326 241.744C169.985 241.573 169.707 241.21 169.494 240.656L163.094 226.832H158.806C158.294 226.832 158.038 227.066 158.038 227.536V240.656C158.038 241.552 157.59 242 156.694 242ZM158.742 220.304H165.014C166.379 220.304 167.382 220.026 168.022 219.472C168.662 218.874 168.982 217.936 168.982 216.656V211.664C168.982 210.341 168.662 209.381 168.022 208.784C167.382 208.186 166.379 207.888 165.014 207.888H158.742C158.273 207.888 158.038 208.122 158.038 208.592V219.6C158.038 220.069 158.273 220.304 158.742 220.304ZM207.182 242H186.254C185.358 242 184.91 241.552 184.91 240.656V202.192C184.91 201.296 185.358 200.848 186.254 200.848H207.182C208.035 200.848 208.462 201.296 208.462 202.192V206.544C208.462 207.44 208.035 207.888 207.182 207.888H193.806C193.294 207.888 193.038 208.122 193.038 208.592V216.912C193.038 217.381 193.294 217.616 193.806 217.616H204.75C205.646 217.616 206.094 218.064 206.094 218.96V223.312C206.094 224.208 205.646 224.656 204.75 224.656H193.806C193.294 224.656 193.038 224.89 193.038 225.36V234.256C193.038 234.725 193.294 234.96 193.806 234.96H207.182C208.035 234.96 208.462 235.408 208.462 236.304V240.656C208.462 241.552 208.035 242 207.182 242ZM237.807 242H216.879C215.983 242 215.535 241.552 215.535 240.656V202.192C215.535 201.296 215.983 200.848 216.879 200.848H237.807C238.66 200.848 239.087 201.296 239.087 202.192V206.544C239.087 207.44 238.66 207.888 237.807 207.888H224.431C223.919 207.888 223.663 208.122 223.663 208.592V216.912C223.663 217.381 223.919 217.616 224.431 217.616H235.375C236.271 217.616 236.719 218.064 236.719 218.96V223.312C236.719 224.208 236.271 224.656 235.375 224.656H224.431C223.919 224.656 223.663 224.89 223.663 225.36V234.256C223.663 234.725 223.919 234.96 224.431 234.96H237.807C238.66 234.96 239.087 235.408 239.087 236.304V240.656C239.087 241.552 238.66 242 237.807 242ZM52.444 307H47.004C46.108 307 45.66 306.552 45.66 305.656V267.192C45.66 266.296 46.108 265.848 47.004 265.848H62.62C65.948 265.848 68.5293 266.765 70.364 268.6C72.1987 270.392 73.116 272.952 73.116 276.28V282.424C73.116 285.752 72.1987 288.333 70.364 290.168C68.5293 291.96 65.948 292.856 62.62 292.856H54.556C54.044 292.856 53.788 293.09 53.788 293.56V305.656C53.788 306.552 53.34 307 52.444 307ZM54.492 285.752H61.276C62.6413 285.752 63.6013 285.474 64.156 284.92C64.7107 284.322 64.988 283.362 64.988 282.04V276.664C64.988 275.298 64.7107 274.338 64.156 273.784C63.6013 273.186 62.6413 272.888 61.276 272.888H54.492C54.0227 272.888 53.788 273.122 53.788 273.592V285.048C53.788 285.517 54.0227 285.752 54.492 285.752ZM83.8855 307H77.7415C76.9735 307 76.7175 306.552 76.9735 305.656L87.0855 267.192C87.3842 266.296 88.0242 265.848 89.0055 265.848H97.5175C98.5842 265.848 99.2242 266.296 99.4375 267.192L109.55 305.656C109.806 306.552 109.55 307 108.782 307H102.638C102.168 307 101.848 306.914 101.678 306.744C101.507 306.53 101.379 306.168 101.294 305.656L99.5015 298.616H87.0215L85.2295 305.656C85.1442 306.168 84.9948 306.53 84.7815 306.744C84.6108 306.914 84.3122 307 83.8855 307ZM93.1655 273.592L88.5575 292.088H98.0295L93.4215 273.592H93.1655ZM114.199 296.504V295.224C114.199 294.328 114.647 293.88 115.543 293.88H120.983C121.879 293.88 122.327 294.328 122.327 295.224V295.736C122.327 297.357 122.647 298.466 123.287 299.064C123.927 299.661 125.1 299.96 126.807 299.96H129.815C131.479 299.96 132.631 299.64 133.271 299C133.953 298.36 134.295 297.165 134.295 295.416V294.648C134.295 293.41 133.783 292.472 132.759 291.832C131.777 291.149 130.54 290.744 129.047 290.616C127.553 290.488 125.932 290.253 124.183 289.912C122.476 289.528 120.876 289.058 119.383 288.504C117.889 287.906 116.631 286.776 115.607 285.112C114.625 283.405 114.135 281.229 114.135 278.584V276.344C114.135 273.016 115.073 270.434 116.951 268.6C118.828 266.765 121.431 265.848 124.759 265.848H131.159C134.529 265.848 137.153 266.765 139.031 268.6C140.908 270.434 141.847 273.016 141.847 276.344V277.56C141.847 278.456 141.399 278.904 140.503 278.904H135.063C134.167 278.904 133.719 278.456 133.719 277.56V277.176C133.719 275.512 133.399 274.381 132.759 273.784C132.119 273.186 130.945 272.888 129.239 272.888H126.743C124.993 272.888 123.799 273.229 123.159 273.912C122.561 274.552 122.263 275.832 122.263 277.752V278.968C122.263 280.973 124.012 282.125 127.51 282.424C131.137 282.722 134.359 283.448 137.175 284.6C138.668 285.24 139.905 286.392 140.887 288.056C141.911 289.677 142.423 291.768 142.423 294.328V296.504C142.423 299.832 141.484 302.413 139.607 304.248C137.729 306.082 135.127 307 131.799 307H124.823C121.495 307 118.892 306.082 117.015 304.248C115.137 302.413 114.199 299.832 114.199 296.504ZM162.458 307H157.083C156.144 307 155.675 306.552 155.675 305.656V273.592C155.675 273.122 155.44 272.888 154.97 272.888H147.674C146.779 272.888 146.331 272.44 146.331 271.544V267.192C146.331 266.296 146.779 265.848 147.674 265.848H171.867C172.763 265.848 173.211 266.296 173.211 267.192V271.544C173.211 272.44 172.763 272.888 171.867 272.888H164.571C164.059 272.888 163.803 273.122 163.803 273.592V305.656C163.803 306.552 163.355 307 162.458 307ZM184.882 307H179.442C178.546 307 178.098 306.552 178.098 305.656V267.192C178.098 266.296 178.546 265.848 179.442 265.848H194.674C198.002 265.848 200.604 266.765 202.482 268.6C204.359 270.434 205.298 273.016 205.298 276.344V281.336C205.298 286.157 203.399 289.357 199.602 290.936V291.192L206.45 305.464C206.834 306.488 206.471 307 205.362 307H200.178C199.41 307 198.855 306.914 198.514 306.744C198.172 306.573 197.895 306.21 197.682 305.656L191.282 291.832H186.994C186.482 291.832 186.226 292.066 186.226 292.536V305.656C186.226 306.552 185.778 307 184.882 307ZM186.93 285.304H193.202C194.567 285.304 195.57 285.026 196.21 284.472C196.85 283.874 197.17 282.936 197.17 281.656V276.664C197.17 275.341 196.85 274.381 196.21 273.784C195.57 273.186 194.567 272.888 193.202 272.888H186.93C186.46 272.888 186.226 273.122 186.226 273.592V284.6C186.226 285.069 186.46 285.304 186.93 285.304ZM228.202 307H222.762C221.866 307 221.418 306.552 221.418 305.656V291.96L209.706 267.256C209.535 266.872 209.535 266.552 209.706 266.296C209.919 265.997 210.218 265.848 210.602 265.848H217.385C218.068 265.848 218.58 266.296 218.922 267.192L225.322 282.744H225.77L232.042 267.192C232.34 266.296 232.852 265.848 233.578 265.848H240.362C240.788 265.848 241.087 265.976 241.257 266.232C241.471 266.488 241.471 266.829 241.257 267.256L229.546 291.96V305.656C229.546 306.552 229.098 307 228.202 307Z" fill="#911327"/>
<path d="M127.882 242H122.442C121.546 242 121.098 241.552 121.098 240.656V202.192C121.098 201.296 121.546 200.848 122.442 200.848H142.858C143.711 200.848 144.138 201.296 144.138 202.192V206.544C144.138 207.44 143.711 207.888 142.858 207.888H129.994C129.482 207.888 129.226 208.122 129.226 208.592V218.512C129.226 219.024 129.482 219.28 129.994 219.28H140.938C141.834 219.28 142.282 219.728 142.282 220.624V224.912C142.282 225.85 141.834 226.32 140.938 226.32H129.994C129.482 226.32 129.226 226.554 129.226 227.024V240.656C129.226 241.552 128.778 242 127.882 242ZM156.694 242H151.254C150.358 242 149.91 241.552 149.91 240.656V202.192C149.91 201.296 150.358 200.848 151.254 200.848H166.486C169.814 200.848 172.417 201.765 174.294 203.6C176.171 205.434 177.11 208.016 177.11 211.344V216.336C177.11 221.157 175.211 224.357 171.414 225.936V226.192L178.262 240.464C178.646 241.488 178.283 242 177.174 242H171.99C171.222 242 170.667 241.914 170.326 241.744C169.985 241.573 169.707 241.21 169.494 240.656L163.094 226.832H158.806C158.294 226.832 158.038 227.066 158.038 227.536V240.656C158.038 241.552 157.59 242 156.694 242ZM158.742 220.304H165.014C166.379 220.304 167.382 220.026 168.022 219.472C168.662 218.874 168.982 217.936 168.982 216.656V211.664C168.982 210.341 168.662 209.381 168.022 208.784C167.382 208.186 166.379 207.888 165.014 207.888H158.742C158.273 207.888 158.038 208.122 158.038 208.592V219.6C158.038 220.069 158.273 220.304 158.742 220.304ZM207.182 242H186.254C185.358 242 184.91 241.552 184.91 240.656V202.192C184.91 201.296 185.358 200.848 186.254 200.848H207.182C208.035 200.848 208.462 201.296 208.462 202.192V206.544C208.462 207.44 208.035 207.888 207.182 207.888H193.806C193.294 207.888 193.038 208.122 193.038 208.592V216.912C193.038 217.381 193.294 217.616 193.806 217.616H204.75C205.646 217.616 206.094 218.064 206.094 218.96V223.312C206.094 224.208 205.646 224.656 204.75 224.656H193.806C193.294 224.656 193.038 224.89 193.038 225.36V234.256C193.038 234.725 193.294 234.96 193.806 234.96H207.182C208.035 234.96 208.462 235.408 208.462 236.304V240.656C208.462 241.552 208.035 242 207.182 242ZM237.807 242H216.879C215.983 242 215.535 241.552 215.535 240.656V202.192C215.535 201.296 215.983 200.848 216.879 200.848H237.807C238.66 200.848 239.087 201.296 239.087 202.192V206.544C239.087 207.44 238.66 207.888 237.807 207.888H224.431C223.919 207.888 223.663 208.122 223.663 208.592V216.912C223.663 217.381 223.919 217.616 224.431 217.616H235.375C236.271 217.616 236.719 218.064 236.719 218.96V223.312C236.719 224.208 236.271 224.656 235.375 224.656H224.431C223.919 224.656 223.663 224.89 223.663 225.36V234.256C223.663 234.725 223.919 234.96 224.431 234.96H237.807C238.66 234.96 239.087 235.408 239.087 236.304V240.656C239.087 241.552 238.66 242 237.807 242ZM52.444 307H47.004C46.108 307 45.66 306.552 45.66 305.656V267.192C45.66 266.296 46.108 265.848 47.004 265.848H62.62C65.948 265.848 68.5293 266.765 70.364 268.6C72.1987 270.392 73.116 272.952 73.116 276.28V282.424C73.116 285.752 72.1987 288.333 70.364 290.168C68.5293 291.96 65.948 292.856 62.62 292.856H54.556C54.044 292.856 53.788 293.09 53.788 293.56V305.656C53.788 306.552 53.34 307 52.444 307ZM54.492 285.752H61.276C62.6413 285.752 63.6013 285.474 64.156 284.92C64.7107 284.322 64.988 283.362 64.988 282.04V276.664C64.988 275.298 64.7107 274.338 64.156 273.784C63.6013 273.186 62.6413 272.888 61.276 272.888H54.492C54.0227 272.888 53.788 273.122 53.788 273.592V285.048C53.788 285.517 54.0227 285.752 54.492 285.752ZM83.8855 307H77.7415C76.9735 307 76.7175 306.552 76.9735 305.656L87.0855 267.192C87.3842 266.296 88.0242 265.848 89.0055 265.848H97.5175C98.5842 265.848 99.2242 266.296 99.4375 267.192L109.55 305.656C109.806 306.552 109.55 307 108.782 307H102.638C102.168 307 101.848 306.914 101.678 306.744C101.507 306.53 101.379 306.168 101.294 305.656L99.5015 298.616H87.0215L85.2295 305.656C85.1442 306.168 84.9948 306.53 84.7815 306.744C84.6108 306.914 84.3122 307 83.8855 307ZM93.1655 273.592L88.5575 292.088H98.0295L93.4215 273.592H93.1655ZM114.199 296.504V295.224C114.199 294.328 114.647 293.88 115.543 293.88H120.983C121.879 293.88 122.327 294.328 122.327 295.224V295.736C122.327 297.357 122.647 298.466 123.287 299.064C123.927 299.661 125.1 299.96 126.807 299.96H129.815C131.479 299.96 132.631 299.64 133.271 299C133.953 298.36 134.295 297.165 134.295 295.416V294.648C134.295 293.41 133.783 292.472 132.759 291.832C131.777 291.149 130.54 290.744 129.047 290.616C127.553 290.488 125.932 290.253 124.183 289.912C122.476 289.528 120.876 289.058 119.383 288.504C117.889 287.906 116.631 286.776 115.607 285.112C114.625 283.405 114.135 281.229 114.135 278.584V276.344C114.135 273.016 115.073 270.434 116.951 268.6C118.828 266.765 121.431 265.848 124.759 265.848H131.159C134.529 265.848 137.153 266.765 139.031 268.6C140.908 270.434 141.847 273.016 141.847 276.344V277.56C141.847 278.456 141.399 278.904 140.503 278.904H135.063C134.167 278.904 133.719 278.456 133.719 277.56V277.176C133.719 275.512 133.399 274.381 132.759 273.784C132.119 273.186 130.945 272.888 129.239 272.888H126.743C124.993 272.888 123.799 273.229 123.159 273.912C122.561 274.552 122.263 275.832 122.263 277.752V278.968C122.263 280.973 124.012 282.125 127.51 282.424C131.137 282.722 134.359 283.448 137.175 284.6C138.668 285.24 139.905 286.392 140.887 288.056C141.911 289.677 142.423 291.768 142.423 294.328V296.504C142.423 299.832 141.484 302.413 139.607 304.248C137.729 306.082 135.127 307 131.799 307H124.823C121.495 307 118.892 306.082 117.015 304.248C115.137 302.413 114.199 299.832 114.199 296.504ZM162.458 307H157.083C156.144 307 155.675 306.552 155.675 305.656V273.592C155.675 273.122 155.44 272.888 154.97 272.888H147.674C146.779 272.888 146.331 272.44 146.331 271.544V267.192C146.331 266.296 146.779 265.848 147.674 265.848H171.867C172.763 265.848 173.211 266.296 173.211 267.192V271.544C173.211 272.44 172.763 272.888 171.867 272.888H164.571C164.059 272.888 163.803 273.122 163.803 273.592V305.656C163.803 306.552 163.355 307 162.458 307ZM184.882 307H179.442C178.546 307 178.098 306.552 178.098 305.656V267.192C178.098 266.296 178.546 265.848 179.442 265.848H194.674C198.002 265.848 200.604 266.765 202.482 268.6C204.359 270.434 205.298 273.016 205.298 276.344V281.336C205.298 286.157 203.399 289.357 199.602 290.936V291.192L206.45 305.464C206.834 306.488 206.471 307 205.362 307H200.178C199.41 307 198.855 306.914 198.514 306.744C198.172 306.573 197.895 306.21 197.682 305.656L191.282 291.832H186.994C186.482 291.832 186.226 292.066 186.226 292.536V305.656C186.226 306.552 185.778 307 184.882 307ZM186.93 285.304H193.202C194.567 285.304 195.57 285.026 196.21 284.472C196.85 283.874 197.17 282.936 197.17 281.656V276.664C197.17 275.341 196.85 274.381 196.21 273.784C195.57 273.186 194.567 272.888 193.202 272.888H186.93C186.46 272.888 186.226 273.122 186.226 273.592V284.6C186.226 285.069 186.46 285.304 186.93 285.304ZM228.202 307H222.762C221.866 307 221.418 306.552 221.418 305.656V291.96L209.706 267.256C209.535 266.872 209.535 266.552 209.706 266.296C209.919 265.997 210.218 265.848 210.602 265.848H217.385C218.068 265.848 218.58 266.296 218.922 267.192L225.322 282.744H225.77L232.042 267.192C232.34 266.296 232.852 265.848 233.578 265.848H240.362C240.788 265.848 241.087 265.976 241.257 266.232C241.471 266.488 241.471 266.829 241.257 267.256L229.546 291.96V305.656C229.546 306.552 229.098 307 228.202 307Z" fill="#006A4D"/>
<path d="M127.882 242H122.442C121.546 242 121.098 241.552 121.098 240.656V202.192C121.098 201.296 121.546 200.848 122.442 200.848H142.858C143.711 200.848 144.138 201.296 144.138 202.192V206.544C144.138 207.44 143.711 207.888 142.858 207.888H129.994C129.482 207.888 129.226 208.122 129.226 208.592V218.512C129.226 219.024 129.482 219.28 129.994 219.28H140.938C141.834 219.28 142.282 219.728 142.282 220.624V224.912C142.282 225.85 141.834 226.32 140.938 226.32H129.994C129.482 226.32 129.226 226.554 129.226 227.024V240.656C129.226 241.552 128.778 242 127.882 242ZM156.694 242H151.254C150.358 242 149.91 241.552 149.91 240.656V202.192C149.91 201.296 150.358 200.848 151.254 200.848H166.486C169.814 200.848 172.417 201.765 174.294 203.6C176.171 205.434 177.11 208.016 177.11 211.344V216.336C177.11 221.157 175.211 224.357 171.414 225.936V226.192L178.262 240.464C178.646 241.488 178.283 242 177.174 242H171.99C171.222 242 170.667 241.914 170.326 241.744C169.985 241.573 169.707 241.21 169.494 240.656L163.094 226.832H158.806C158.294 226.832 158.038 227.066 158.038 227.536V240.656C158.038 241.552 157.59 242 156.694 242ZM158.742 220.304H165.014C166.379 220.304 167.382 220.026 168.022 219.472C168.662 218.874 168.982 217.936 168.982 216.656V211.664C168.982 210.341 168.662 209.381 168.022 208.784C167.382 208.186 166.379 207.888 165.014 207.888H158.742C158.273 207.888 158.038 208.122 158.038 208.592V219.6C158.038 220.069 158.273 220.304 158.742 220.304ZM207.182 242H186.254C185.358 242 184.91 241.552 184.91 240.656V202.192C184.91 201.296 185.358 200.848 186.254 200.848H207.182C208.035 200.848 208.462 201.296 208.462 202.192V206.544C208.462 207.44 208.035 207.888 207.182 207.888H193.806C193.294 207.888 193.038 208.122 193.038 208.592V216.912C193.038 217.381 193.294 217.616 193.806 217.616H204.75C205.646 217.616 206.094 218.064 206.094 218.96V223.312C206.094 224.208 205.646 224.656 204.75 224.656H193.806C193.294 224.656 193.038 224.89 193.038 225.36V234.256C193.038 234.725 193.294 234.96 193.806 234.96H207.182C208.035 234.96 208.462 235.408 208.462 236.304V240.656C208.462 241.552 208.035 242 207.182 242ZM237.807 242H216.879C215.983 242 215.535 241.552 215.535 240.656V202.192C215.535 201.296 215.983 200.848 216.879 200.848H237.807C238.66 200.848 239.087 201.296 239.087 202.192V206.544C239.087 207.44 238.66 207.888 237.807 207.888H224.431C223.919 207.888 223.663 208.122 223.663 208.592V216.912C223.663 217.381 223.919 217.616 224.431 217.616H235.375C236.271 217.616 236.719 218.064 236.719 218.96V223.312C236.719 224.208 236.271 224.656 235.375 224.656H224.431C223.919 224.656 223.663 224.89 223.663 225.36V234.256C223.663 234.725 223.919 234.96 224.431 234.96H237.807C238.66 234.96 239.087 235.408 239.087 236.304V240.656C239.087 241.552 238.66 242 237.807 242ZM52.444 307H47.004C46.108 307 45.66 306.552 45.66 305.656V267.192C45.66 266.296 46.108 265.848 47.004 265.848H62.62C65.948 265.848 68.5293 266.765 70.364 268.6C72.1987 270.392 73.116 272.952 73.116 276.28V282.424C73.116 285.752 72.1987 288.333 70.364 290.168C68.5293 291.96 65.948 292.856 62.62 292.856H54.556C54.044 292.856 53.788 293.09 53.788 293.56V305.656C53.788 306.552 53.34 307 52.444 307ZM54.492 285.752H61.276C62.6413 285.752 63.6013 285.474 64.156 284.92C64.7107 284.322 64.988 283.362 64.988 282.04V276.664C64.988 275.298 64.7107 274.338 64.156 273.784C63.6013 273.186 62.6413 272.888 61.276 272.888H54.492C54.0227 272.888 53.788 273.122 53.788 273.592V285.048C53.788 285.517 54.0227 285.752 54.492 285.752ZM83.8855 307H77.7415C76.9735 307 76.7175 306.552 76.9735 305.656L87.0855 267.192C87.3842 266.296 88.0242 265.848 89.0055 265.848H97.5175C98.5842 265.848 99.2242 266.296 99.4375 267.192L109.55 305.656C109.806 306.552 109.55 307 108.782 307H102.638C102.168 307 101.848 306.914 101.678 306.744C101.507 306.53 101.379 306.168 101.294 305.656L99.5015 298.616H87.0215L85.2295 305.656C85.1442 306.168 84.9948 306.53 84.7815 306.744C84.6108 306.914 84.3122 307 83.8855 307ZM93.1655 273.592L88.5575 292.088H98.0295L93.4215 273.592H93.1655ZM114.199 296.504V295.224C114.199 294.328 114.647 293.88 115.543 293.88H120.983C121.879 293.88 122.327 294.328 122.327 295.224V295.736C122.327 297.357 122.647 298.466 123.287 299.064C123.927 299.661 125.1 299.96 126.807 299.96H129.815C131.479 299.96 132.631 299.64 133.271 299C133.953 298.36 134.295 297.165 134.295 295.416V294.648C134.295 293.41 133.783 292.472 132.759 291.832C131.777 291.149 130.54 290.744 129.047 290.616C127.553 290.488 125.932 290.253 124.183 289.912C122.476 289.528 120.876 289.058 119.383 288.504C117.889 287.906 116.631 286.776 115.607 285.112C114.625 283.405 114.135 281.229 114.135 278.584V276.344C114.135 273.016 115.073 270.434 116.951 268.6C118.828 266.765 121.431 265.848 124.759 265.848H131.159C134.529 265.848 137.153 266.765 139.031 268.6C140.908 270.434 141.847 273.016 141.847 276.344V277.56C141.847 278.456 141.399 278.904 140.503 278.904H135.063C134.167 278.904 133.719 278.456 133.719 277.56V277.176C133.719 275.512 133.399 274.381 132.759 273.784C132.119 273.186 130.945 272.888 129.239 272.888H126.743C124.993 272.888 123.799 273.229 123.159 273.912C122.561 274.552 122.263 275.832 122.263 277.752V278.968C122.263 280.973 124.012 282.125 127.51 282.424C131.137 282.722 134.359 283.448 137.175 284.6C138.668 285.24 139.905 286.392 140.887 288.056C141.911 289.677 142.423 291.768 142.423 294.328V296.504C142.423 299.832 141.484 302.413 139.607 304.248C137.729 306.082 135.127 307 131.799 307H124.823C121.495 307 118.892 306.082 117.015 304.248C115.137 302.413 114.199 299.832 114.199 296.504ZM162.458 307H157.083C156.144 307 155.675 306.552 155.675 305.656V273.592C155.675 273.122 155.44 272.888 154.97 272.888H147.674C146.779 272.888 146.331 272.44 146.331 271.544V267.192C146.331 266.296 146.779 265.848 147.674 265.848H171.867C172.763 265.848 173.211 266.296 173.211 267.192V271.544C173.211 272.44 172.763 272.888 171.867 272.888H164.571C164.059 272.888 163.803 273.122 163.803 273.592V305.656C163.803 306.552 163.355 307 162.458 307ZM184.882 307H179.442C178.546 307 178.098 306.552 178.098 305.656V267.192C178.098 266.296 178.546 265.848 179.442 265.848H194.674C198.002 265.848 200.604 266.765 202.482 268.6C204.359 270.434 205.298 273.016 205.298 276.344V281.336C205.298 286.157 203.399 289.357 199.602 290.936V291.192L206.45 305.464C206.834 306.488 206.471 307 205.362 307H200.178C199.41 307 198.855 306.914 198.514 306.744C198.172 306.573 197.895 306.21 197.682 305.656L191.282 291.832H186.994C186.482 291.832 186.226 292.066 186.226 292.536V305.656C186.226 306.552 185.778 307 184.882 307ZM186.93 285.304H193.202C194.567 285.304 195.57 285.026 196.21 284.472C196.85 283.874 197.17 282.936 197.17 281.656V276.664C197.17 275.341 196.85 274.381 196.21 273.784C195.57 273.186 194.567 272.888 193.202 272.888H186.93C186.46 272.888 186.226 273.122 186.226 273.592V284.6C186.226 285.069 186.46 285.304 186.93 285.304ZM228.202 307H222.762C221.866 307 221.418 306.552 221.418 305.656V291.96L209.706 267.256C209.535 266.872 209.535 266.552 209.706 266.296C209.919 265.997 210.218 265.848 210.602 265.848H217.385C218.068 265.848 218.58 266.296 218.922 267.192L225.322 282.744H225.77L232.042 267.192C232.34 266.296 232.852 265.848 233.578 265.848H240.362C240.788 265.848 241.087 265.976 241.257 266.232C241.471 266.488 241.471 266.829 241.257 267.256L229.546 291.96V305.656C229.546 306.552 229.098 307 228.202 307Z" fill="#006A4D"/>
<path d="M127.882 242H122.442C121.546 242 121.098 241.552 121.098 240.656V202.192C121.098 201.296 121.546 200.848 122.442 200.848H142.858C143.711 200.848 144.138 201.296 144.138 202.192V206.544C144.138 207.44 143.711 207.888 142.858 207.888H129.994C129.482 207.888 129.226 208.122 129.226 208.592V218.512C129.226 219.024 129.482 219.28 129.994 219.28H140.938C141.834 219.28 142.282 219.728 142.282 220.624V224.912C142.282 225.85 141.834 226.32 140.938 226.32H129.994C129.482 226.32 129.226 226.554 129.226 227.024V240.656C129.226 241.552 128.778 242 127.882 242ZM156.694 242H151.254C150.358 242 149.91 241.552 149.91 240.656V202.192C149.91 201.296 150.358 200.848 151.254 200.848H166.486C169.814 200.848 172.417 201.765 174.294 203.6C176.171 205.434 177.11 208.016 177.11 211.344V216.336C177.11 221.157 175.211 224.357 171.414 225.936V226.192L178.262 240.464C178.646 241.488 178.283 242 177.174 242H171.99C171.222 242 170.667 241.914 170.326 241.744C169.985 241.573 169.707 241.21 169.494 240.656L163.094 226.832H158.806C158.294 226.832 158.038 227.066 158.038 227.536V240.656C158.038 241.552 157.59 242 156.694 242ZM158.742 220.304H165.014C166.379 220.304 167.382 220.026 168.022 219.472C168.662 218.874 168.982 217.936 168.982 216.656V211.664C168.982 210.341 168.662 209.381 168.022 208.784C167.382 208.186 166.379 207.888 165.014 207.888H158.742C158.273 207.888 158.038 208.122 158.038 208.592V219.6C158.038 220.069 158.273 220.304 158.742 220.304ZM207.182 242H186.254C185.358 242 184.91 241.552 184.91 240.656V202.192C184.91 201.296 185.358 200.848 186.254 200.848H207.182C208.035 200.848 208.462 201.296 208.462 202.192V206.544C208.462 207.44 208.035 207.888 207.182 207.888H193.806C193.294 207.888 193.038 208.122 193.038 208.592V216.912C193.038 217.381 193.294 217.616 193.806 217.616H204.75C205.646 217.616 206.094 218.064 206.094 218.96V223.312C206.094 224.208 205.646 224.656 204.75 224.656H193.806C193.294 224.656 193.038 224.89 193.038 225.36V234.256C193.038 234.725 193.294 234.96 193.806 234.96H207.182C208.035 234.96 208.462 235.408 208.462 236.304V240.656C208.462 241.552 208.035 242 207.182 242ZM237.807 242H216.879C215.983 242 215.535 241.552 215.535 240.656V202.192C215.535 201.296 215.983 200.848 216.879 200.848H237.807C238.66 200.848 239.087 201.296 239.087 202.192V206.544C239.087 207.44 238.66 207.888 237.807 207.888H224.431C223.919 207.888 223.663 208.122 223.663 208.592V216.912C223.663 217.381 223.919 217.616 224.431 217.616H235.375C236.271 217.616 236.719 218.064 236.719 218.96V223.312C236.719 224.208 236.271 224.656 235.375 224.656H224.431C223.919 224.656 223.663 224.89 223.663 225.36V234.256C223.663 234.725 223.919 234.96 224.431 234.96H237.807C238.66 234.96 239.087 235.408 239.087 236.304V240.656C239.087 241.552 238.66 242 237.807 242ZM52.444 307H47.004C46.108 307 45.66 306.552 45.66 305.656V267.192C45.66 266.296 46.108 265.848 47.004 265.848H62.62C65.948 265.848 68.5293 266.765 70.364 268.6C72.1987 270.392 73.116 272.952 73.116 276.28V282.424C73.116 285.752 72.1987 288.333 70.364 290.168C68.5293 291.96 65.948 292.856 62.62 292.856H54.556C54.044 292.856 53.788 293.09 53.788 293.56V305.656C53.788 306.552 53.34 307 52.444 307ZM54.492 285.752H61.276C62.6413 285.752 63.6013 285.474 64.156 284.92C64.7107 284.322 64.988 283.362 64.988 282.04V276.664C64.988 275.298 64.7107 274.338 64.156 273.784C63.6013 273.186 62.6413 272.888 61.276 272.888H54.492C54.0227 272.888 53.788 273.122 53.788 273.592V285.048C53.788 285.517 54.0227 285.752 54.492 285.752ZM83.8855 307H77.7415C76.9735 307 76.7175 306.552 76.9735 305.656L87.0855 267.192C87.3842 266.296 88.0242 265.848 89.0055 265.848H97.5175C98.5842 265.848 99.2242 266.296 99.4375 267.192L109.55 305.656C109.806 306.552 109.55 307 108.782 307H102.638C102.168 307 101.848 306.914 101.678 306.744C101.507 306.53 101.379 306.168 101.294 305.656L99.5015 298.616H87.0215L85.2295 305.656C85.1442 306.168 84.9948 306.53 84.7815 306.744C84.6108 306.914 84.3122 307 83.8855 307ZM93.1655 273.592L88.5575 292.088H98.0295L93.4215 273.592H93.1655ZM114.199 296.504V295.224C114.199 294.328 114.647 293.88 115.543 293.88H120.983C121.879 293.88 122.327 294.328 122.327 295.224V295.736C122.327 297.357 122.647 298.466 123.287 299.064C123.927 299.661 125.1 299.96 126.807 299.96H129.815C131.479 299.96 132.631 299.64 133.271 299C133.953 298.36 134.295 297.165 134.295 295.416V294.648C134.295 293.41 133.783 292.472 132.759 291.832C131.777 291.149 130.54 290.744 129.047 290.616C127.553 290.488 125.932 290.253 124.183 289.912C122.476 289.528 120.876 289.058 119.383 288.504C117.889 287.906 116.631 286.776 115.607 285.112C114.625 283.405 114.135 281.229 114.135 278.584V276.344C114.135 273.016 115.073 270.434 116.951 268.6C118.828 266.765 121.431 265.848 124.759 265.848H131.159C134.529 265.848 137.153 266.765 139.031 268.6C140.908 270.434 141.847 273.016 141.847 276.344V277.56C141.847 278.456 141.399 278.904 140.503 278.904H135.063C134.167 278.904 133.719 278.456 133.719 277.56V277.176C133.719 275.512 133.399 274.381 132.759 273.784C132.119 273.186 130.945 272.888 129.239 272.888H126.743C124.993 272.888 123.799 273.229 123.159 273.912C122.561 274.552 122.263 275.832 122.263 277.752V278.968C122.263 280.973 124.012 282.125 127.51 282.424C131.137 282.722 134.359 283.448 137.175 284.6C138.668 285.24 139.905 286.392 140.887 288.056C141.911 289.677 142.423 291.768 142.423 294.328V296.504C142.423 299.832 141.484 302.413 139.607 304.248C137.729 306.082 135.127 307 131.799 307H124.823C121.495 307 118.892 306.082 117.015 304.248C115.137 302.413 114.199 299.832 114.199 296.504ZM162.458 307H157.083C156.144 307 155.675 306.552 155.675 305.656V273.592C155.675 273.122 155.44 272.888 154.97 272.888H147.674C146.779 272.888 146.331 272.44 146.331 271.544V267.192C146.331 266.296 146.779 265.848 147.674 265.848H171.867C172.763 265.848 173.211 266.296 173.211 267.192V271.544C173.211 272.44 172.763 272.888 171.867 272.888H164.571C164.059 272.888 163.803 273.122 163.803 273.592V305.656C163.803 306.552 163.355 307 162.458 307ZM184.882 307H179.442C178.546 307 178.098 306.552 178.098 305.656V267.192C178.098 266.296 178.546 265.848 179.442 265.848H194.674C198.002 265.848 200.604 266.765 202.482 268.6C204.359 270.434 205.298 273.016 205.298 276.344V281.336C205.298 286.157 203.399 289.357 199.602 290.936V291.192L206.45 305.464C206.834 306.488 206.471 307 205.362 307H200.178C199.41 307 198.855 306.914 198.514 306.744C198.172 306.573 197.895 306.21 197.682 305.656L191.282 291.832H186.994C186.482 291.832 186.226 292.066 186.226 292.536V305.656C186.226 306.552 185.778 307 184.882 307ZM186.93 285.304H193.202C194.567 285.304 195.57 285.026 196.21 284.472C196.85 283.874 197.17 282.936 197.17 281.656V276.664C197.17 275.341 196.85 274.381 196.21 273.784C195.57 273.186 194.567 272.888 193.202 272.888H186.93C186.46 272.888 186.226 273.122 186.226 273.592V284.6C186.226 285.069 186.46 285.304 186.93 285.304ZM228.202 307H222.762C221.866 307 221.418 306.552 221.418 305.656V291.96L209.706 267.256C209.535 266.872 209.535 266.552 209.706 266.296C209.919 265.997 210.218 265.848 210.602 265.848H217.385C218.068 265.848 218.58 266.296 218.922 267.192L225.322 282.744H225.77L232.042 267.192C232.34 266.296 232.852 265.848 233.578 265.848H240.362C240.788 265.848 241.087 265.976 241.257 266.232C241.471 266.488 241.471 266.829 241.257 267.256L229.546 291.96V305.656C229.546 306.552 229.098 307 228.202 307Z" fill="#006A4D"/>
<path d="M127.882 242H122.442C121.546 242 121.098 241.552 121.098 240.656V202.192C121.098 201.296 121.546 200.848 122.442 200.848H142.858C143.711 200.848 144.138 201.296 144.138 202.192V206.544C144.138 207.44 143.711 207.888 142.858 207.888H129.994C129.482 207.888 129.226 208.122 129.226 208.592V218.512C129.226 219.024 129.482 219.28 129.994 219.28H140.938C141.834 219.28 142.282 219.728 142.282 220.624V224.912C142.282 225.85 141.834 226.32 140.938 226.32H129.994C129.482 226.32 129.226 226.554 129.226 227.024V240.656C129.226 241.552 128.778 242 127.882 242ZM156.694 242H151.254C150.358 242 149.91 241.552 149.91 240.656V202.192C149.91 201.296 150.358 200.848 151.254 200.848H166.486C169.814 200.848 172.417 201.765 174.294 203.6C176.171 205.434 177.11 208.016 177.11 211.344V216.336C177.11 221.157 175.211 224.357 171.414 225.936V226.192L178.262 240.464C178.646 241.488 178.283 242 177.174 242H171.99C171.222 242 170.667 241.914 170.326 241.744C169.985 241.573 169.707 241.21 169.494 240.656L163.094 226.832H158.806C158.294 226.832 158.038 227.066 158.038 227.536V240.656C158.038 241.552 157.59 242 156.694 242ZM158.742 220.304H165.014C166.379 220.304 167.382 220.026 168.022 219.472C168.662 218.874 168.982 217.936 168.982 216.656V211.664C168.982 210.341 168.662 209.381 168.022 208.784C167.382 208.186 166.379 207.888 165.014 207.888H158.742C158.273 207.888 158.038 208.122 158.038 208.592V219.6C158.038 220.069 158.273 220.304 158.742 220.304ZM207.182 242H186.254C185.358 242 184.91 241.552 184.91 240.656V202.192C184.91 201.296 185.358 200.848 186.254 200.848H207.182C208.035 200.848 208.462 201.296 208.462 202.192V206.544C208.462 207.44 208.035 207.888 207.182 207.888H193.806C193.294 207.888 193.038 208.122 193.038 208.592V216.912C193.038 217.381 193.294 217.616 193.806 217.616H204.75C205.646 217.616 206.094 218.064 206.094 218.96V223.312C206.094 224.208 205.646 224.656 204.75 224.656H193.806C193.294 224.656 193.038 224.89 193.038 225.36V234.256C193.038 234.725 193.294 234.96 193.806 234.96H207.182C208.035 234.96 208.462 235.408 208.462 236.304V240.656C208.462 241.552 208.035 242 207.182 242ZM237.807 242H216.879C215.983 242 215.535 241.552 215.535 240.656V202.192C215.535 201.296 215.983 200.848 216.879 200.848H237.807C238.66 200.848 239.087 201.296 239.087 202.192V206.544C239.087 207.44 238.66 207.888 237.807 207.888H224.431C223.919 207.888 223.663 208.122 223.663 208.592V216.912C223.663 217.381 223.919 217.616 224.431 217.616H235.375C236.271 217.616 236.719 218.064 236.719 218.96V223.312C236.719 224.208 236.271 224.656 235.375 224.656H224.431C223.919 224.656 223.663 224.89 223.663 225.36V234.256C223.663 234.725 223.919 234.96 224.431 234.96H237.807C238.66 234.96 239.087 235.408 239.087 236.304V240.656C239.087 241.552 238.66 242 237.807 242ZM52.444 307H47.004C46.108 307 45.66 306.552 45.66 305.656V267.192C45.66 266.296 46.108 265.848 47.004 265.848H62.62C65.948 265.848 68.5293 266.765 70.364 268.6C72.1987 270.392 73.116 272.952 73.116 276.28V282.424C73.116 285.752 72.1987 288.333 70.364 290.168C68.5293 291.96 65.948 292.856 62.62 292.856H54.556C54.044 292.856 53.788 293.09 53.788 293.56V305.656C53.788 306.552 53.34 307 52.444 307ZM54.492 285.752H61.276C62.6413 285.752 63.6013 285.474 64.156 284.92C64.7107 284.322 64.988 283.362 64.988 282.04V276.664C64.988 275.298 64.7107 274.338 64.156 273.784C63.6013 273.186 62.6413 272.888 61.276 272.888H54.492C54.0227 272.888 53.788 273.122 53.788 273.592V285.048C53.788 285.517 54.0227 285.752 54.492 285.752ZM83.8855 307H77.7415C76.9735 307 76.7175 306.552 76.9735 305.656L87.0855 267.192C87.3842 266.296 88.0242 265.848 89.0055 265.848H97.5175C98.5842 265.848 99.2242 266.296 99.4375 267.192L109.55 305.656C109.806 306.552 109.55 307 108.782 307H102.638C102.168 307 101.848 306.914 101.678 306.744C101.507 306.53 101.379 306.168 101.294 305.656L99.5015 298.616H87.0215L85.2295 305.656C85.1442 306.168 84.9948 306.53 84.7815 306.744C84.6108 306.914 84.3122 307 83.8855 307ZM93.1655 273.592L88.5575 292.088H98.0295L93.4215 273.592H93.1655ZM114.199 296.504V295.224C114.199 294.328 114.647 293.88 115.543 293.88H120.983C121.879 293.88 122.327 294.328 122.327 295.224V295.736C122.327 297.357 122.647 298.466 123.287 299.064C123.927 299.661 125.1 299.96 126.807 299.96H129.815C131.479 299.96 132.631 299.64 133.271 299C133.953 298.36 134.295 297.165 134.295 295.416V294.648C134.295 293.41 133.783 292.472 132.759 291.832C131.777 291.149 130.54 290.744 129.047 290.616C127.553 290.488 125.932 290.253 124.183 289.912C122.476 289.528 120.876 289.058 119.383 288.504C117.889 287.906 116.631 286.776 115.607 285.112C114.625 283.405 114.135 281.229 114.135 278.584V276.344C114.135 273.016 115.073 270.434 116.951 268.6C118.828 266.765 121.431 265.848 124.759 265.848H131.159C134.529 265.848 137.153 266.765 139.031 268.6C140.908 270.434 141.847 273.016 141.847 276.344V277.56C141.847 278.456 141.399 278.904 140.503 278.904H135.063C134.167 278.904 133.719 278.456 133.719 277.56V277.176C133.719 275.512 133.399 274.381 132.759 273.784C132.119 273.186 130.945 272.888 129.239 272.888H126.743C124.993 272.888 123.799 273.229 123.159 273.912C122.561 274.552 122.263 275.832 122.263 277.752V278.968C122.263 280.973 124.012 282.125 127.51 282.424C131.137 282.722 134.359 283.448 137.175 284.6C138.668 285.24 139.905 286.392 140.887 288.056C141.911 289.677 142.423 291.768 142.423 294.328V296.504C142.423 299.832 141.484 302.413 139.607 304.248C137.729 306.082 135.127 307 131.799 307H124.823C121.495 307 118.892 306.082 117.015 304.248C115.137 302.413 114.199 299.832 114.199 296.504ZM162.458 307H157.083C156.144 307 155.675 306.552 155.675 305.656V273.592C155.675 273.122 155.44 272.888 154.97 272.888H147.674C146.779 272.888 146.331 272.44 146.331 271.544V267.192C146.331 266.296 146.779 265.848 147.674 265.848H171.867C172.763 265.848 173.211 266.296 173.211 267.192V271.544C173.211 272.44 172.763 272.888 171.867 272.888H164.571C164.059 272.888 163.803 273.122 163.803 273.592V305.656C163.803 306.552 163.355 307 162.458 307ZM184.882 307H179.442C178.546 307 178.098 306.552 178.098 305.656V267.192C178.098 266.296 178.546 265.848 179.442 265.848H194.674C198.002 265.848 200.604 266.765 202.482 268.6C204.359 270.434 205.298 273.016 205.298 276.344V281.336C205.298 286.157 203.399 289.357 199.602 290.936V291.192L206.45 305.464C206.834 306.488 206.471 307 205.362 307H200.178C199.41 307 198.855 306.914 198.514 306.744C198.172 306.573 197.895 306.21 197.682 305.656L191.282 291.832H186.994C186.482 291.832 186.226 292.066 186.226 292.536V305.656C186.226 306.552 185.778 307 184.882 307ZM186.93 285.304H193.202C194.567 285.304 195.57 285.026 196.21 284.472C196.85 283.874 197.17 282.936 197.17 281.656V276.664C197.17 275.341 196.85 274.381 196.21 273.784C195.57 273.186 194.567 272.888 193.202 272.888H186.93C186.46 272.888 186.226 273.122 186.226 273.592V284.6C186.226 285.069 186.46 285.304 186.93 285.304ZM228.202 307H222.762C221.866 307 221.418 306.552 221.418 305.656V291.96L209.706 267.256C209.535 266.872 209.535 266.552 209.706 266.296C209.919 265.997 210.218 265.848 210.602 265.848H217.385C218.068 265.848 218.58 266.296 218.922 267.192L225.322 282.744H225.77L232.042 267.192C232.34 266.296 232.852 265.848 233.578 265.848H240.362C240.788 265.848 241.087 265.976 241.257 266.232C241.471 266.488 241.471 266.829 241.257 267.256L229.546 291.96V305.656C229.546 306.552 229.098 307 228.202 307Z" fill="#917427"/>
<path d="M378 270C378 279.941 369.941 288 360 288C350.06 288 342 279.941 342 270C342 260.06 350.06 252 360 252C369.941 252 378 260.06 378 270Z" fill="#FFCC4D"/>
<path d="M353.5 272C354.881 272 356 270.433 356 268.5C356 266.567 354.881 265 353.5 265C352.119 265 351 266.567 351 268.5C351 270.433 352.119 272 353.5 272Z" fill="#664500"/>
<path d="M370.457 269.797C370.397 269.662 368.958 266.5 366 266.5C363.043 266.5 361.603 269.662 361.543 269.797C361.451 270.004 361.511 270.246 361.688 270.388C361.863 270.53 362.114 270.535 362.298 270.402C362.31 270.393 363.56 269.5 366 269.5C368.426 269.5 369.674 270.381 369.702 270.401C369.79 270.467 369.896 270.5 370 270.5C370.11 270.5 370.221 270.463 370.312 270.391C370.489 270.249 370.55 270.005 370.457 269.797V269.797ZM347.999 264.458C347.791 264.458 347.58 264.393 347.4 264.258C346.958 263.927 346.869 263.3 347.2 262.858C350.462 258.508 354.816 258.458 355 258.458C355.552 258.458 356 258.906 356 259.458C356 260.009 355.555 260.456 355.004 260.458C354.848 260.46 351.435 260.544 348.799 264.058C348.604 264.32 348.303 264.458 347.999 264.458ZM371.001 266.583C370.696 266.583 370.397 266.445 370.2 266.183C367.608 262.726 363.239 263.556 363.196 263.563C362.649 263.671 362.128 263.32 362.019 262.779C361.911 262.237 362.262 261.711 362.803 261.602C363.034 261.555 368.46 260.53 371.799 264.982C372.131 265.424 372.041 266.051 371.599 266.382C371.42 266.519 371.21 266.583 371.001 266.583V266.583ZM365.254 275.577C365.066 275.467 364.822 275.49 364.657 275.637C364.647 275.645 363.644 276.5 360 276.5C356.359 276.5 355.354 275.646 355.354 275.646C355.195 275.486 354.95 275.456 354.754 275.564C354.559 275.675 354.461 275.903 354.516 276.121C354.526 276.165 355.66 280.5 360 280.5C364.34 280.5 365.474 276.165 365.485 276.121C365.538 275.908 365.441 275.69 365.254 275.577V275.577Z" fill="#664500"/>
<path d="M306 324C306 333.941 297.941 342 288 342C278.059 342 270 333.941 270 324C270 314.059 278.059 306 288 306C297.941 306 306 314.059 306 324Z" fill="#FFCC4D"/>
<path d="M288 327.849C285.034 327.849 283.065 327.503 280.631 327.03C280.074 326.924 278.993 327.03 278.993 328.668C278.993 331.943 282.756 336.037 288 336.037C293.244 336.037 297.007 331.943 297.007 328.668C297.007 327.03 295.925 326.923 295.369 327.03C292.935 327.503 290.967 327.849 288 327.849Z" fill="#664500"/>
<path d="M286.65 309.281C285.791 306.85 283.126 305.574 280.694 306.431C279.218 306.951 278.173 308.142 277.766 309.535C276.575 308.706 275.015 308.435 273.541 308.955C271.111 309.813 269.833 312.48 270.692 314.911C270.814 315.255 270.976 315.574 271.164 315.869C273.115 319.451 278.752 321.969 282.165 322C284.802 319.833 287.611 314.335 286.883 310.323C286.845 309.975 286.77 309.625 286.65 309.281V309.281ZM289.35 309.281C290.209 306.85 292.875 305.574 295.306 306.431C296.782 306.951 297.827 308.142 298.235 309.535C299.426 308.706 300.986 308.435 302.46 308.955C304.89 309.813 306.167 312.48 305.31 314.911C305.187 315.255 305.026 315.574 304.837 315.869C302.886 319.451 297.249 321.969 293.835 322C291.198 319.833 288.39 314.335 289.118 310.323C289.155 309.975 289.23 309.625 289.35 309.281V309.281Z" fill="#DD2E44"/>
<path d="M312 405C312 414.941 303.941 423 294 423C284.059 423 276 414.941 276 405C276 395.059 284.059 387 294 387C303.941 387 312 395.059 312 405Z" fill="#FFCC4D"/>
<path d="M294 408C290.377 408 287.973 407.578 285 407C284.321 406.869 283 407 283 409C283 413 287.595 418 294 418C300.404 418 305 413 305 409C305 407 303.679 406.868 303 407C300.027 407.578 297.623 408 294 408Z" fill="#664500"/>
<path d="M285 409C285 409 288 410 294 410C300 410 303 409 303 409C303 409 301 413 294 413C287 413 285 409 285 409Z" fill="white"/>
<path d="M291.682 391.413L287.14 392.214L284.8 387.961C284.542 387.492 284.012 387.241 283.488 387.333C282.961 387.426 282.551 387.844 282.469 388.372L281.724 393.169L277.182 393.97C276.647 394.064 276.234 394.495 276.161 395.034C276.088 395.573 276.372 396.097 276.864 396.331L280.934 398.263L280.186 403.075C280.103 403.611 280.375 404.139 280.859 404.384C281.038 404.474 281.23 404.517 281.421 404.517C281.748 404.517 282.071 404.389 282.312 404.145L285.824 400.584L290.342 402.729C290.832 402.961 291.416 402.852 291.788 402.457C292.16 402.062 292.234 401.473 291.973 400.998L289.625 396.73L292.79 393.522C293.172 393.135 293.259 392.545 293.007 392.063C292.753 391.581 292.214 391.32 291.682 391.413V391.413ZM296.318 391.413L300.86 392.214L303.2 387.961C303.458 387.492 303.988 387.241 304.512 387.333C305.038 387.426 305.448 387.844 305.53 388.372L306.275 393.169L310.817 393.97C311.353 394.064 311.766 394.494 311.838 395.033C311.91 395.572 311.627 396.096 311.135 396.33L307.065 398.262L307.813 403.074C307.896 403.61 307.624 404.138 307.14 404.383C306.961 404.473 306.769 404.516 306.578 404.516C306.251 404.516 305.928 404.388 305.687 404.144L302.175 400.583L297.657 402.728C297.167 402.96 296.583 402.851 296.211 402.456C295.839 402.061 295.765 401.472 296.026 400.997L298.374 396.73L295.209 393.522C294.827 393.135 294.74 392.545 294.992 392.063C295.247 391.581 295.786 391.32 296.318 391.413V391.413Z" fill="#E95F28"/>
<path d="M454 319C454 328.941 445.941 337 436 337C426.06 337 418 328.941 418 319C418 309.06 426.06 301 436 301C445.941 301 454 309.06 454 319Z" fill="#FFCC4D"/>
<path d="M446.457 318.797C446.397 318.662 444.958 315.5 442 315.5C439.043 315.5 437.603 318.662 437.543 318.797C437.451 319.004 437.511 319.246 437.688 319.388C437.863 319.53 438.114 319.535 438.298 319.402C438.31 319.393 439.56 318.5 442 318.5C444.426 318.5 445.674 319.381 445.702 319.401C445.79 319.467 445.896 319.5 446 319.5C446.11 319.5 446.221 319.463 446.312 319.391C446.489 319.249 446.55 319.005 446.457 318.797V318.797ZM434.457 318.797C434.397 318.662 432.958 315.5 430 315.5C427.043 315.5 425.603 318.662 425.543 318.797C425.451 319.004 425.511 319.246 425.687 319.388C425.863 319.53 426.114 319.535 426.297 319.402C426.31 319.393 427.559 318.5 430 318.5C432.426 318.5 433.674 319.381 433.702 319.401C433.79 319.467 433.896 319.5 434 319.5C434.11 319.5 434.221 319.463 434.312 319.391C434.49 319.249 434.549 319.005 434.457 318.797V318.797ZM436 323C432.377 323 429.973 322.578 427 322C426.321 321.869 425 322 425 324C425 328 429.595 333 436 333C442.404 333 447 328 447 324C447 322 445.679 321.868 445 322C442.027 322.578 439.623 323 436 323Z" fill="#664500"/>
<path d="M427 324C427 324 430 325 436 325C442 325 445 324 445 324C445 324 443 328 436 328C429 328 427 324 427 324Z" fill="white"/>
<path d="M454 400C454 409.941 445.941 418 436 418C426.06 418 418 409.941 418 400C418 390.06 426.06 382 436 382C445.941 382 454 390.06 454 400Z" fill="#FFCC4D"/>
<path d="M434 400C433.581 400 433.191 399.735 433.051 399.316C432.848 398.717 432.034 397 431 397C429.938 397 429.112 398.827 428.949 399.316C428.774 399.839 428.211 400.124 427.684 399.948C427.16 399.774 426.877 399.207 427.052 398.683C427.177 398.307 428.356 395 431 395C433.644 395 434.823 398.307 434.949 398.684C435.124 399.208 434.841 399.775 434.317 399.949C434.211 399.983 434.104 400 434 400V400ZM444 400C443.581 400 443.191 399.735 443.052 399.316C442.849 398.717 442.033 397 441 397C439.938 397 439.111 398.827 438.948 399.316C438.773 399.839 438.212 400.124 437.683 399.948C437.16 399.774 436.876 399.207 437.051 398.683C437.177 398.307 438.355 395 441 395C443.645 395 444.823 398.307 444.948 398.684C445.123 399.208 444.84 399.775 444.316 399.949C444.211 399.983 444.104 400 444 400ZM436 404C432.377 404 429.973 403.578 427 403C426.321 402.869 425 403 425 405C425 409 429.595 414 436 414C442.404 414 447 409 447 405C447 403 445.679 402.868 445 403C442.027 403.578 439.623 404 436 404Z" fill="#664500"/>
<path d="M427 405C427 405 430 406 436 406C442 406 445 405 445 405C445 405 443.656 411.75 436 411.75C428.344 411.75 427 405 427 405Z" fill="white"/>
<path d="M436 409.594C432.404 409.594 429.728 409.222 428.063 408.849L427.238 406.978C428.061 407.29 431.127 407.875 436.001 407.875C440.955 407.875 444.038 407.259 444.865 406.937L444.164 408.779C442.53 409.159 439.745 409.594 436 409.594Z" fill="#664500"/>
<path d="M378 441C378 450.941 369.941 459 360 459C350.06 459 342 450.941 342 441C342 431.06 350.06 423 360 423C369.941 423 378 431.06 378 441Z" fill="#FFCC4D"/>
<path d="M360 445C356.377 445 353.973 444.578 351 444C350.321 443.869 349 444 349 446C349 450 353.595 455 360 455C366.404 455 371 450 371 446C371 444 369.679 443.868 369 444C366.027 444.578 363.623 445 360 445Z" fill="#664500"/>
<path d="M351 446C351 446 354 447 360 447C366 447 369 446 369 446C369 446 367 450 360 450C353 450 351 446 351 446Z" fill="white"/>
<path d="M372.6 441.2C372.486 441.115 370.669 439.774 367.954 438.856C367.98 438.741 368 438.623 368 438.5C368 438.131 367.861 437.797 367.641 437.536C369.443 437.016 370.975 437 371.002 437C371.553 436.998 372 436.55 371.999 435.998C371.998 435.447 371.552 435 371 435C370.779 435 365.549 435.038 362.293 438.293C362.007 438.579 361.921 439.009 362.076 439.383C362.23 439.756 362.596 440 363 440C367.59 440 371.363 442.772 371.401 442.801C371.581 442.935 371.791 442.999 371.999 442.999C372.304 442.999 372.604 442.86 372.801 442.599C373.131 442.156 373.041 441.531 372.6 441.2V441.2ZM357.707 438.293C354.452 435.038 349.221 435 349 435C348.448 435 348.001 435.447 348.001 435.998C348 436.55 348.447 436.998 348.999 437C349.025 437 350.557 437.016 352.36 437.536C352.139 437.797 352 438.131 352 438.5C352 438.623 352.019 438.741 352.047 438.856C349.331 439.774 347.514 441.115 347.4 441.2C346.958 441.531 346.869 442.158 347.2 442.599C347.396 442.862 347.697 443 348.001 443C348.209 443 348.42 442.935 348.6 442.8C348.637 442.772 352.387 440 357 440C357.404 440 357.769 439.756 357.924 439.383C358.079 439.009 357.993 438.579 357.707 438.293V438.293Z" fill="#664500"/>
</g>
<defs>
<filter id="filter0_d" x="89" y="-99" width="449.502" height="466.999" filterUnits="userSpaceOnUse" color-interpolation-filters="sRGB">
<feFlood flood-opacity="0" result="BackgroundImageFix"/>
<feColorMatrix in="SourceAlpha" type="matrix" values="0 0 0 0 0 0 0 0 0 0 0 0 0 0 0 0 0 0 127 0"/>
<feOffset dy="4"/>
<feGaussianBlur stdDeviation="2"/>
<feColorMatrix type="matrix" values="0 0 0 0 0 0 0 0 0 0 0 0 0 0 0 0 0 0 0.25 0"/>
<feBlend mode="normal" in2="BackgroundImageFix" result="effect1_dropShadow"/>
<feBlend mode="normal" in="SourceGraphic" in2="effect1_dropShadow" result="shape"/>
</filter>
<filter id="filter1_d" x="354" y="53.9998" width="361.508" height="313.704" filterUnits="userSpaceOnUse" color-interpolation-filters="sRGB">
<feFlood flood-opacity="0" result="BackgroundImageFix"/>
<feColorMatrix in="SourceAlpha" type="matrix" values="0 0 0 0 0 0 0 0 0 0 0 0 0 0 0 0 0 0 127 0"/>
<feOffset dy="4"/>
<feGaussianBlur stdDeviation="2"/>
<feColorMatrix type="matrix" values="0 0 0 0 0 0 0 0 0 0 0 0 0 0 0 0 0 0 0.25 0"/>
<feBlend mode="normal" in2="BackgroundImageFix" result="effect1_dropShadow"/>
<feBlend mode="normal" in="SourceGraphic" in2="effect1_dropShadow" result="shape"/>
</filter>
<filter id="filter2_d" x="-84" y="53.9998" width="449.502" height="466.999" filterUnits="userSpaceOnUse" color-interpolation-filters="sRGB">
<feFlood flood-opacity="0" result="BackgroundImageFix"/>
<feColorMatrix in="SourceAlpha" type="matrix" values="0 0 0 0 0 0 0 0 0 0 0 0 0 0 0 0 0 0 127 0"/>
<feOffset dy="4"/>
<feGaussianBlur stdDeviation="2"/>
<feColorMatrix type="matrix" values="0 0 0 0 0 0 0 0 0 0 0 0 0 0 0 0 0 0 0.25 0"/>
<feBlend mode="normal" in2="BackgroundImageFix" result="effect1_dropShadow"/>
<feBlend mode="normal" in="SourceGraphic" in2="effect1_dropShadow" result="shape"/>
</filter>
<filter id="filter3_d" x="354" y="207" width="449.502" height="466.999" filterUnits="userSpaceOnUse" color-interpolation-filters="sRGB">
<feFlood flood-opacity="0" result="BackgroundImageFix"/>
<feColorMatrix in="SourceAlpha" type="matrix" values="0 0 0 0 0 0 0 0 0 0 0 0 0 0 0 0 0 0 127 0"/>
<feOffset dy="4"/>
<feGaussianBlur stdDeviation="2"/>
<feColorMatrix type="matrix" values="0 0 0 0 0 0 0 0 0 0 0 0 0 0 0 0 0 0 0.25 0"/>
<feBlend mode="normal" in2="BackgroundImageFix" result="effect1_dropShadow"/>
<feBlend mode="normal" in="SourceGraphic" in2="effect1_dropShadow" result="shape"/>
</filter>
<filter id="filter4_d" x="178" y="360" width="449.502" height="466.999" filterUnits="userSpaceOnUse" color-interpolation-filters="sRGB">
<feFlood flood-opacity="0" result="BackgroundImageFix"/>
<feColorMatrix in="SourceAlpha" type="matrix" values="0 0 0 0 0 0 0 0 0 0 0 0 0 0 0 0 0 0 127 0"/>
<feOffset dy="4"/>
<feGaussianBlur stdDeviation="2"/>
<feColorMatrix type="matrix" values="0 0 0 0 0 0 0 0 0 0 0 0 0 0 0 0 0 0 0.25 0"/>
<feBlend mode="normal" in2="BackgroundImageFix" result="effect1_dropShadow"/>
<feBlend mode="normal" in="SourceGraphic" in2="effect1_dropShadow" result="shape"/>
</filter>
<filter id="filter5_d" x="4.00012" y="360" width="361.508" height="313.704" filterUnits="userSpaceOnUse" color-interpolation-filters="sRGB">
<feFlood flood-opacity="0" result="BackgroundImageFix"/>
<feColorMatrix in="SourceAlpha" type="matrix" values="0 0 0 0 0 0 0 0 0 0 0 0 0 0 0 0 0 0 127 0"/>
<feOffset dy="4"/>
<feGaussianBlur stdDeviation="2"/>
<feColorMatrix type="matrix" values="0 0 0 0 0 0 0 0 0 0 0 0 0 0 0 0 0 0 0.25 0"/>
<feBlend mode="normal" in2="BackgroundImageFix" result="effect1_dropShadow"/>
<feBlend mode="normal" in="SourceGraphic" in2="effect1_dropShadow" result="shape"/>
</filter>
<filter id="filter6_d" x="318" y="320" width="88" height="88" filterUnits="userSpaceOnUse" color-interpolation-filters="sRGB">
<feFlood flood-opacity="0" result="BackgroundImageFix"/>
<feColorMatrix in="SourceAlpha" type="matrix" values="0 0 0 0 0 0 0 0 0 0 0 0 0 0 0 0 0 0 127 0"/>
<feOffset dy="4"/>
<feGaussianBlur stdDeviation="2"/>
<feColorMatrix type="matrix" values="0 0 0 0 0 0 0 0 0 0 0 0 0 0 0 0 0 0 0.25 0"/>
<feBlend mode="normal" in2="BackgroundImageFix" result="effect1_dropShadow"/>
<feBlend mode="normal" in="SourceGraphic" in2="effect1_dropShadow" result="shape"/>
</filter>
<clipPath id="clip0">
<rect width="720" height="720" fill="white"/>
</clipPath>
</defs>
</svg>
